<svg id="Layer_1" data-name="Layer 1" xmlns="http://www.w3.org/2000/svg" xmlns:xlink="http://www.w3.org/1999/xlink" viewBox="0 0 301 352.79"><defs><style>.cls-1{fill:url(#linear-gradient);}.cls-2{fill:url(#linear-gradient-2);}.cls-3{fill:url(#linear-gradient-3);}.cls-4{fill:url(#linear-gradient-4);}.cls-5{fill:url(#linear-gradient-5);}.cls-6{fill:url(#radial-gradient);}.cls-7{fill:url(#radial-gradient-2);}.cls-8{fill:url(#linear-gradient-6);}.cls-9{fill:url(#linear-gradient-7);}.cls-10{fill:url(#linear-gradient-8);}.cls-11{fill:url(#linear-gradient-9);}.cls-12{fill:url(#radial-gradient-3);}.cls-13{fill:url(#radial-gradient-4);}.cls-14{fill:url(#radial-gradient-5);}.cls-15{fill:url(#linear-gradient-10);}.cls-16{fill:url(#linear-gradient-11);}.cls-17{fill:url(#linear-gradient-12);}</style><linearGradient id="linear-gradient" x1="585.88" y1="398.82" x2="683.23" y2="398.82" gradientUnits="userSpaceOnUse"><stop offset="0.3" stop-color="#009245"/><stop offset="0.65" stop-color="#8bc34a"/><stop offset="1" stop-color="#cddc39"/></linearGradient><linearGradient id="linear-gradient-2" x1="737.89" y1="279.6" x2="837" y2="279.6" gradientUnits="userSpaceOnUse"><stop offset="0.01" stop-color="#009245"/><stop offset="0.29" stop-color="#8bc34a"/><stop offset="1" stop-color="#cddc39"/></linearGradient><linearGradient id="linear-gradient-3" x1="584.36" y1="218.25" x2="793.63" y2="218.25" gradientUnits="userSpaceOnUse"><stop offset="0.01" stop-color="#009245"/><stop offset="0.44" stop-color="#8bc34a"/><stop offset="1" stop-color="#cddc39"/></linearGradient><linearGradient id="linear-gradient-4" x1="625.71" y1="432.62" x2="814.71" y2="432.62" gradientUnits="userSpaceOnUse"><stop offset="0.11" stop-color="#009245"/><stop offset="0.68" stop-color="#8bc34a"/><stop offset="1" stop-color="#cddc39"/></linearGradient><linearGradient id="linear-gradient-5" x1="645.83" y1="262.99" x2="794.43" y2="262.99" gradientUnits="userSpaceOnUse"><stop offset="0" stop-color="#ed1c24"/><stop offset="0.01" stop-color="#c1272d"/><stop offset="0.72"/></linearGradient><radialGradient id="radial-gradient" cx="704.5" cy="350.07" r="101.3" gradientUnits="userSpaceOnUse"><stop offset="0.01" stop-color="#f15a24"/><stop offset="0.82" stop-color="#ed1c24"/><stop offset="0.87" stop-color="#333"/><stop offset="0.93" stop-color="#c1272d"/></radialGradient><radialGradient id="radial-gradient-2" cx="703.5" cy="420.5" r="106" gradientTransform="translate(-634.96 277.04) scale(1.12 0.14)" gradientUnits="userSpaceOnUse"><stop offset="0" stop-color="#f2f2f2"/><stop offset="1" stop-color="#999" stop-opacity="0"/></radialGradient><linearGradient id="linear-gradient-6" x1="618" y1="283.5" x2="792" y2="283.5" gradientUnits="userSpaceOnUse"><stop offset="0" stop-color="#fff" stop-opacity="0.4"/><stop offset="1" stop-color="#e6e6e6" stop-opacity="0.2"/></linearGradient><linearGradient id="linear-gradient-7" x1="553" y1="337.62" x2="854" y2="337.62" gradientUnits="userSpaceOnUse"><stop offset="0" stop-color="#cddc39"/><stop offset="0.81" stop-color="#8bc34a"/><stop offset="1" stop-color="#009245"/></linearGradient><linearGradient id="linear-gradient-8" x1="619.54" y1="440.44" x2="808.77" y2="440.44" gradientUnits="userSpaceOnUse"><stop offset="0" stop-color="#cddc39"/><stop offset="0.74" stop-color="#8bc34a"/><stop offset="1" stop-color="#009245"/></linearGradient><linearGradient id="linear-gradient-9" x1="584.64" y1="211.75" x2="793.95" y2="211.75" gradientUnits="userSpaceOnUse"><stop offset="0" stop-color="#cddc39"/><stop offset="0.78" stop-color="#8bc34a"/><stop offset="1" stop-color="#009245"/></linearGradient><radialGradient id="radial-gradient-3" cx="660.19" cy="259.87" r="16.17" gradientUnits="userSpaceOnUse"><stop offset="0" stop-color="#fff"/><stop offset="1" stop-color="#e6e6e6" stop-opacity="0.2"/></radialGradient><radialGradient id="radial-gradient-4" cx="660.19" cy="259.87" r="17.38" xlink:href="#radial-gradient-3"/><radialGradient id="radial-gradient-5" cx="660.68" cy="259.87" r="15.55" xlink:href="#radial-gradient-3"/><linearGradient id="linear-gradient-10" x1="607.64" y1="211.25" x2="703" y2="211.25" xlink:href="#linear-gradient-6"/><linearGradient id="linear-gradient-11" x1="636.54" y1="440" x2="692" y2="440" xlink:href="#linear-gradient-6"/><linearGradient id="linear-gradient-12" x1="567" y1="350.51" x2="647.77" y2="350.51" gradientUnits="userSpaceOnUse"><stop offset="0" stop-color="#fff" stop-opacity="0.4"/><stop offset="0.3" stop-color="#e6e6e6" stop-opacity="0.2"/></linearGradient></defs><title>3DImageBackground</title><path class="cls-1" d="M652.58,376.41c-6.07.27-20.82.46-39.09,12.38s-30.38,25.72-27.06,30.8,22.16,6,40.09-6.38c2.91-2,1.52-.92,18.49-15.21,1.9-1.6,5.13-4.38,8.18-6.6,2.09-1.53,5.18-5.09,6.82-6.4C676.85,371.52,706,374,652.58,376.41Z" transform="translate(-553 -173.71)"/><path class="cls-2" d="M837,254s-21.12,4-28,6a111.61,111.61,0,0,0-17,7c-14.51,8-54.11,38.21-54.11,38.21L791,305Z" transform="translate(-553 -173.71)"/><path class="cls-3" d="M752.46,213.88c-24.55,8.79-43.83,25.47-68.12,35.23-24,10.72-50.77,19.08-76.21,9.45-10.47-4.35-20.71-15.07-23.77-26.46a150.51,150.51,0,0,1,209.27-28.26C778.94,203.65,765.58,208.33,752.46,213.88Z" transform="translate(-553 -173.71)"/><path class="cls-4" d="M646.69,434.25c6.28-4.3,15.7-8.21,22.38-10.55,30.23-17.2,60.26-30.28,97.33-28.45,19.55.36,37.45,13.72,48.32,30.62a150.51,150.51,0,0,1-189,19.71C633.73,440.89,640,438.38,646.69,434.25Z" transform="translate(-553 -173.71)"/><path class="cls-5" d="M703.5,237a105,105,0,0,0-57.67,17.15c45.34,25,96.92,34.53,148.6,34.84A105.44,105.44,0,0,0,703.5,237Z" transform="translate(-553 -173.71)"/><path class="cls-6" d="M795.43,288c-51.68-.31-103.26-9.87-148.6-34.84A105.49,105.49,0,1,0,795.43,288Z" transform="translate(-553 -173.71)"/><ellipse class="cls-7" cx="151.5" cy="337.54" rx="118.5" ry="15.25"/><path class="cls-8" d="M618,327a87,87,0,0,1,174,0" transform="translate(-553 -173.71)"/><path class="cls-9" d="M836.66,254.34C801.68,290.16,752.84,316,704,301c-20-6-38-19-59-23-32.23-4.88-60.64,11.21-89.89,21.28A151.43,151.43,0,0,0,553,324.5a149.87,149.87,0,0,0,34.95,96.4C601.7,411.13,615,400.05,629,391c44-30,95-12,145-1,20.8,4.52,41.6,2.52,61.66,6.53a150.61,150.61,0,0,0,1-142.19Z" transform="translate(-553 -173.71)"/><path class="cls-10" d="M786,425c-7-3-17-5-24-6-33-11-65-18-101-9-19.11,4.15-34.07,20.74-41.46,39.42A150.51,150.51,0,0,0,808.77,432C800,429,793.35,427.75,786,425Z" transform="translate(-553 -173.71)"/><path class="cls-11" d="M627,231c26,2,49,13,75,16,26,4,54,5,76-11,8.95-7,16-20,15.95-31.79a150.51,150.51,0,0,0-209.31,28C598.76,228.12,612.88,229.12,627,231Z" transform="translate(-553 -173.71)"/><path class="cls-12" d="M677.3,275c-12-9.55-15.11-11.36-20.54-12.13-.87-4.81-2.91-7.53-13.69-18.2,12,9.55,15.11,11.36,20.54,12.13C664.48,261.65,666.52,264.37,677.3,275Z" transform="translate(-553 -173.71)"/><path class="cls-13" d="M684.39,259.87c-16.14.79-19.75,1.43-24.21,4.29-4.46-2.86-8.07-3.5-24.21-4.29,16.14-.79,19.75-1.43,24.21-4.29C664.64,258.44,668.25,259.08,684.39,259.87Z" transform="translate(-553 -173.71)"/><path class="cls-14" d="M660.68,281.32c-.89-14.3-1.61-17.5-4.84-21.45,3.23-3.95,4-7.15,4.84-21.45.89,14.3,1.61,17.5,4.84,21.45C662.3,263.82,661.57,267,660.68,281.32Z" transform="translate(-553 -173.71)"/><path class="cls-12" d="M643.07,275c10.78-10.67,12.82-13.38,13.69-18.2,5.43-.77,8.5-2.58,20.54-12.13-10.78,10.67-12.82,13.38-13.69,18.2C658.18,263.67,655.11,265.48,643.07,275Z" transform="translate(-553 -173.71)"/><path class="cls-15" d="M626.94,223.62c11.85,1.28,22.32,8.35,34.17,10.28,11.85,2.57,24.6,3.21,34.63-7.07C699.81,222.36,703,214,703,206.4c-11.47-12.18-25.74-19.4-41.21-19.4-22,0-41.61,14.63-54.15,37.38C614.07,221.77,620.5,222.41,626.94,223.62Z" transform="translate(-553 -173.71)"/><path class="cls-16" d="M685.33,430.17a19.23,19.23,0,0,0-7-3.82c-9.67-7-19-11.46-29.6-5.73-5.6,2.64-10,13.2-12.15,25.1C643.57,456,652,462,661.15,462c12,0,22.9-10.43,30.85-27.35C689.43,432.72,687.48,431.92,685.33,430.17Z" transform="translate(-553 -173.71)"/><path class="cls-17" d="M647.77,310.19c-10.7-5-20.33-16-31.56-19.32-17.24-4.1-32.43,9.42-48.08,17.88A198.29,198.29,0,0,0,567,329.93c0,30.81,7,59,18.69,81,7.35-8.21,14.48-17.51,22-25.12" transform="translate(-553 -173.71)"/></svg>