<svg id="Layer_1" data-name="Layer 1" xmlns="http://www.w3.org/2000/svg" viewBox="0 0 455.09 271"><defs><style>.cls-1{fill:#999;}.cls-2{fill:#f7b175;}.cls-3{fill:#ff9800;}.cls-4{fill:#4caf50;}.cls-5{fill:#2196f3;}.cls-6{stroke:#000;stroke-miterlimit:10;}</style></defs><title>BodyTemplates</title><rect class="cls-1" y="248.92" width="110" height="22.08" rx="5.88" ry="5.88"/><path class="cls-2" d="M875.38,187.44a9.92,9.92,0,0,0,10.13,9.64h10.13a9.92,9.92,0,0,0,10.13-9.64V66.19H875.38Z" transform="translate(-872 -14)"/><path class="cls-3" d="M895.64,29.26H885.51a9.92,9.92,0,0,0-10.13,9.64v27.3h30.39V38.89A9.92,9.92,0,0,0,895.64,29.26Z" transform="translate(-872 -14)"/><path class="cls-2" d="M949.68,187.44a9.92,9.92,0,0,0,10.13,9.64h10.13a9.92,9.92,0,0,0,10.13-9.64V66.19H949.68Z" transform="translate(-872 -14)"/><path class="cls-3" d="M969.94,29.26H959.81a9.92,9.92,0,0,0-10.13,9.64v27.3h30.39V38.89A9.92,9.92,0,0,0,969.94,29.26Z" transform="translate(-872 -14)"/><rect class="cls-1" x="154.5" y="210.74" width="95.79" height="11.76" rx="5.88" ry="5.88"/><path class="cls-4" d="M1041,53.2a7.8,7.8,0,0,0-7.71-7.84h-7.07a7.8,7.8,0,0,0-7.71,7.84V79H1041Z" transform="translate(-872 -14)"/><path class="cls-2" d="M1026.21,189.1h7.07a7.8,7.8,0,0,0,7.71-7.84V79h-22.5V181.26A7.8,7.8,0,0,0,1026.21,189.1Z" transform="translate(-872 -14)"/><path class="cls-4" d="M1130,53.2a7.8,7.8,0,0,0-7.71-7.84h-7.07a7.8,7.8,0,0,0-7.71,7.84V79H1130Z" transform="translate(-872 -14)"/><path class="cls-2" d="M1115.21,189.1h7.07a7.8,7.8,0,0,0,7.71-7.84V79h-22.5V181.26A7.8,7.8,0,0,0,1115.21,189.1Z" transform="translate(-872 -14)"/><rect class="cls-1" x="355.11" y="211.21" width="81.99" height="10.79" rx="5.39" ry="5.39"/><path class="cls-5" d="M1236,38c0-3.43-4.45-6.24-9.89-6.24h-4.12c-5.44,0-9.89,2.8-9.9,6.23V60.89h23.91Z" transform="translate(-872 -14)"/><path class="cls-2" d="M1221.91,157.5H1226c5.45,0,9.91-4,9.91-8.85l0-87.76H1212l0,87.76C1212,153.52,1216.46,157.5,1221.91,157.5Z" transform="translate(-872 -14)"/><path class="cls-5" d="M1236,38c0-3.43-4.45-6.24-9.89-6.24h-4.12c-5.44,0-9.89,2.8-9.9,6.23V60.89h23.91Z" transform="translate(-872 -14)"/><path class="cls-2" d="M1221.91,157.5H1226c5.45,0,9.91-4,9.91-8.85l0-87.76H1212l0,87.76C1212,153.52,1216.46,157.5,1221.91,157.5Z" transform="translate(-872 -14)"/><ellipse cx="395.54" cy="81.19" rx="23.06" ry="21.85"/><path class="cls-5" d="M1327.06,38c0-3.43-4.45-6.24-9.89-6.24H1313c-5.44,0-9.89,2.8-9.9,6.23V60.89H1327Z" transform="translate(-872 -14)"/><path class="cls-2" d="M1313,157.5h4.13c5.45,0,9.91-4,9.91-8.85l0-87.76h-23.95l0,87.76C1303.1,153.52,1307.56,157.5,1313,157.5Z" transform="translate(-872 -14)"/><ellipse class="cls-5" cx="395.82" cy="44.78" rx="47.26" ry="44.78"/><rect x="377.03" y="86.32" width="7.4" height="130.56" rx="3.7" ry="3.7"/><rect x="407.21" y="86.32" width="7.4" height="130.56" rx="3.7" ry="3.7"/><ellipse class="cls-4" cx="202.07" cy="63.73" rx="45" ry="45.73"/><rect class="cls-4" x="173.14" y="82.03" width="57.86" height="42.47"/><path class="cls-6" d="M1073.75,165A44.39,44.39,0,0,1,1103,176V138.5h-57.86v36.89A44.38,44.38,0,0,1,1073.75,165Z" transform="translate(-872 -14)"/><rect class="cls-6" x="218.14" y="144.75" width="12.86" height="73.83"/><rect class="cls-6" x="173.14" y="144.75" width="12.86" height="73.83"/><path class="cls-3" d="M963.18,48.53c0-19-16.34-34.53-36.3-34.53h0c-20,0-36.3,15.54-36.3,34.53V91.89h72.61Z" transform="translate(-872 -14)"/><path d="M926.88,142.47h0c20,0,36.3-15.54,36.3-34.53V91.89H890.57v16.06C890.57,126.94,906.91,142.47,926.88,142.47Z" transform="translate(-872 -14)"/><rect x="28.71" y="94.75" width="17.73" height="165.41"/><rect x="64.17" y="94.75" width="17.73" height="165.41"/></svg>