<svg id="Layer_1" data-name="Layer 1" xmlns="http://www.w3.org/2000/svg" viewBox="0 0 556 202"><defs><style>.cls-1,.cls-3{fill:#f7b175;}.cls-2,.cls-4{fill:#ff394f;}.cls-3{stroke:#f7b175;}.cls-3,.cls-4,.cls-5,.cls-6,.cls-7,.cls-8{stroke-miterlimit:10;}.cls-4,.cls-7,.cls-8{stroke:#ff394f;}.cls-5{fill:#00bcd4;stroke:#00bcd4;}.cls-6{stroke:#000;}.cls-7,.cls-8{fill:none;}.cls-7{stroke-width:4px;}.cls-8{stroke-width:10px;}.cls-9{fill:#999;}.cls-10{fill:#ed1c24;}.cls-11{fill:#d4145a;}.cls-12{fill:#c1272d;}.cls-13{fill:#fff;}.cls-14{fill:#2e3192;}</style></defs><title>HeadTemplates</title><ellipse class="cls-1" cx="134.36" cy="96.08" rx="20.64" ry="21.58"/><ellipse class="cls-2" cx="133.97" cy="96.08" rx="10.13" ry="10.99"/><ellipse class="cls-1" cx="20.64" cy="92.01" rx="20.64" ry="21.58"/><ellipse class="cls-2" cx="20.25" cy="92.01" rx="10.13" ry="10.99"/><ellipse class="cls-1" cx="328.32" cy="92.95" rx="18.68" ry="18.81"/><ellipse class="cls-2" cx="327.93" cy="92.55" rx="11.29" ry="11.36"/><ellipse class="cls-1" cx="228.68" cy="92.95" rx="18.68" ry="18.81"/><ellipse class="cls-2" cx="228.29" cy="92.55" rx="11.29" ry="11.36"/><ellipse class="cls-3" cx="537.92" cy="110.98" rx="9.89" ry="11.99"/><ellipse class="cls-4" cx="537.92" cy="110.98" rx="5.37" ry="6.51"/><ellipse class="cls-3" cx="424.39" cy="110.98" rx="9.89" ry="11.99"/><ellipse class="cls-4" cx="424.39" cy="110.98" rx="5.37" ry="6.51"/><path class="cls-1" d="M1313.36,160V73.6h-113v89.11h.08a6.21,6.21,0,0,0,2,4.26l49.93,47.16a7.08,7.08,0,0,0,9.59,0L1311.88,167A6.17,6.17,0,0,0,1313.36,160Z" transform="translate(-776 -14)"/><rect x="445.85" width="110.15" height="64.39" rx="22.95" ry="22.95"/><ellipse cx="439.92" cy="55.83" rx="22.31" ry="27.06"/><path class="cls-5" d="M1323.81,52.7c0-14.69-9.91-26.72-22-26.72h-29.94l4.72,2.74h25.21c10.9,0,19.77,10.76,19.77,24v2.11l2.26,1.31Z" transform="translate(-776 -14)"/><ellipse class="cls-6" cx="452.63" cy="110.98" rx="6.5" ry="7.88"/><ellipse class="cls-6" cx="508.55" cy="110.98" rx="6.5" ry="7.88"/><rect class="cls-6" x="432.01" y="86.66" width="41.8" height="13.02" rx="4.64" ry="4.64"/><rect class="cls-6" x="483.41" y="87.34" width="41.8" height="13.02" rx="4.64" ry="4.64"/><ellipse class="cls-4" cx="469.01" cy="132.56" rx="4.24" ry="5.48"/><ellipse class="cls-4" cx="492.73" cy="132.56" rx="4.24" ry="5.48"/><path class="cls-7" d="M1235.4,164.46c9.83,31.53,43.4,19.11,43.49.22" transform="translate(-776 -14)"/><path class="cls-8" d="M986,225" transform="translate(-776 -14)"/><rect class="cls-1" x="228.68" y="13" width="99.64" height="174" rx="49.82" ry="49.82"/><rect class="cls-9" x="214.28" y="49.45" width="50.6" height="26.65" rx="12" ry="12"/><rect class="cls-9" x="291.34" y="51.8" width="50.6" height="26.65" rx="12" ry="12"/><ellipse class="cls-6" cx="251.64" cy="89.42" rx="3.89" ry="3.92"/><ellipse class="cls-6" cx="306.13" cy="89.42" rx="3.89" ry="3.92"/><path d="M1054.5,123c-13.76,0-24.91,10.62-24.91,23.71a23,23,0,0,0,6.9,16.37,29.23,29.23,0,0,1,36.25-.22,23,23,0,0,0,6.67-16.14C1079.41,133.63,1068.26,123,1054.5,123Z" transform="translate(-776 -14)"/><path class="cls-10" d="M1036.49,163.09a25.76,25.76,0,0,0,36.25-.22,29.23,29.23,0,0,0-36.25.22Z" transform="translate(-776 -14)"/><path class="cls-9" d="M1085.64,146a31.53,31.53,0,1,0-63.05,0c0,.32,0,.63,0,.95h63C1085.62,146.6,1085.64,146.29,1085.64,146Z" transform="translate(-776 -14)"/><rect class="cls-11" x="269.16" y="63.95" width="18.68" height="58" rx="9.34" ry="9.34"/><rect x="26.48" y="11" width="105.15" height="184" rx="46.13" ry="46.13"/><rect class="cls-1" x="32.57" y="59" width="92.98" height="68.44" rx="12" ry="12"/><ellipse cx="79.06" cy="127" rx="34.33" ry="35.11"/><ellipse class="cls-1" cx="79.06" cy="127.44" rx="23.9" ry="24.89"/><path d="M837.82,147.69a11.33,11.33,0,0,0-.29,2.53A12.33,12.33,0,0,0,841.4,159a20.45,20.45,0,0,1,27.31,0,12.33,12.33,0,0,0,3.87-8.77,11.33,11.33,0,0,0-.29-2.53H837.82Z" transform="translate(-776 -14)"/><path class="cls-12" d="M855.06,153.77A19.41,19.41,0,0,0,841.4,159a20.45,20.45,0,0,0,27.31,0A19.41,19.41,0,0,0,855.06,153.77Z" transform="translate(-776 -14)"/><polygon class="cls-13" points="96.58 126.61 61.95 126.61 61.95 133.69 96.29 133.69 96.58 133.69 96.58 126.61"/><rect class="cls-12" x="65.43" y="71.25" width="24.92" height="49.66" rx="10.93" ry="10.93"/><ellipse cx="48.29" cy="78.58" rx="7.01" ry="7.33"/><rect class="cls-14" x="26.48" y="49.27" width="35.83" height="16.28" rx="7.7" ry="7.7"/><ellipse cx="106.71" cy="78.58" rx="7.01" ry="7.33"/><rect class="cls-14" x="88.79" y="49.27" width="35.83" height="16.28" rx="7.7" ry="7.7"/></svg>