<svg id="Layer_1" data-name="Layer 1" xmlns="http://www.w3.org/2000/svg" viewBox="0 0 597.2 590.4"><defs><style>.cls-1{fill:#e6e6e6;}.cls-2{fill:#8c6239;}.cls-3{fill:#fff;}.cls-4{fill:#c1272d;}.cls-5{fill:#f06292;}</style></defs><title>modelUpload</title><circle class="cls-1" cx="374.2" cy="562" r="27"/><circle class="cls-1" cx="222.2" cy="562" r="27"/><rect class="cls-1" x="580.95" y="247.33" width="36.9" height="389.04" transform="translate(-621.07 371.49) rotate(-33.44)"/><rect class="cls-1" x="756.88" y="423.4" width="389.04" height="36.9" transform="translate(-418.42 960.23) rotate(-56.56)"/><path class="cls-1" d="M1074,258.5A85.5,85.5,0,0,0,988.5,173c-.41,0-.81,0-1.22,0A156,156,0,0,0,692,119.13a113.09,113.09,0,0,0-113.85,55.32A85.48,85.48,0,1,0,556,343.73V344H989A85.49,85.49,0,0,0,1074,258.5Z" transform="translate(-476.8 -32)"/><rect class="cls-2" x="210.2" y="404" width="178" height="178"/><circle cx="206.2" cy="138" r="27"/><circle class="cls-3" cx="217.2" cy="149" r="11"/><circle cx="415.2" cy="138" r="27"/><circle class="cls-3" cx="404.2" cy="149" r="11"/><circle class="cls-3" cx="257.2" cy="447" r="25"/><path d="M734.5,485.5a14,14,0,1,1,14-14A14,14,0,0,1,734.5,485.5Z" transform="translate(-476.8 -32)"/><path class="cls-3" d="M734.5,458A13.5,13.5,0,1,1,721,471.5,13.52,13.52,0,0,1,734.5,458m0-1A14.5,14.5,0,1,0,749,471.5,14.5,14.5,0,0,0,734.5,457Z" transform="translate(-476.8 -32)"/><circle class="cls-3" cx="336.2" cy="447" r="25"/><path d="M813.5,485.5a14,14,0,1,1,14-14A14,14,0,0,1,813.5,485.5Z" transform="translate(-476.8 -32)"/><path class="cls-3" d="M813.5,458A13.5,13.5,0,1,1,800,471.5,13.52,13.52,0,0,1,813.5,458m0-1A14.5,14.5,0,1,0,828,471.5,14.5,14.5,0,0,0,813.5,457Z" transform="translate(-476.8 -32)"/><polygon points="323 548.8 273.48 548.8 298.24 505.91 323 548.8"/><polygon class="cls-4" points="311.9 550.11 285.5 550.13 298.69 527.26 311.9 550.11"/><ellipse class="cls-5" cx="194.7" cy="197.5" rx="33.5" ry="14.5"/><ellipse class="cls-5" cx="426.7" cy="197.5" rx="33.5" ry="14.5"/><rect x="183.2" y="232" width="253" height="80" rx="40" ry="40"/><path class="cls-4" d="M686,339c0-13.25,45-24,100.5-24S887,325.75,887,339" transform="translate(-476.8 -32)"/><ellipse class="cls-1" cx="687.89" cy="603.18" rx="16.67" ry="24.06" transform="matrix(0.55, -0.83, 0.83, 0.55, -671.32, 812.76)"/><ellipse class="cls-1" cx="850.89" cy="603.18" rx="24.06" ry="16.67" transform="translate(-668.34 536.8) rotate(-33.44)"/></svg>