<svg id="Layer_1" data-name="Layer 1" xmlns="http://www.w3.org/2000/svg" viewBox="0 0 1086.5 715"><defs><style>.cls-1{fill:#fff;}.cls-2{fill:#42210b;}.cls-3{fill:#593609;}.cls-4{fill:#fcc062;}.cls-5{fill:#f9f;}.cls-6{fill:#9e9e9e;}.cls-7{fill:#424242;}</style></defs><title>monkey</title><path class="cls-1" d="M495.07,150.36c0,45.32-45.76,82.07-102.21,82.07" transform="translate(-196.5 -32)"/><path class="cls-2" d="M392.85,242.3c-4.93,0-8.93-4.42-8.93-9.86s4-9.86,8.93-9.86c25.43,0,49.23-7.87,67-22.15,16.93-13.6,26.26-31.37,26.26-50.05,0-5.45,4-9.86,8.93-9.86s8.93,4.42,8.93,9.86c0,25.16-11.94,48.6-33.62,66C449.56,233.09,422,242.3,392.85,242.3Z" transform="translate(-196.5 -32)"/><ellipse class="cls-2" cx="120.58" cy="212.27" rx="109.36" ry="120.73"/><rect class="cls-2" x="0.5" y="164.92" width="55.9" height="147.56" rx="27.95" ry="27.95"/><rect class="cls-2" x="191.35" y="164.92" width="55.9" height="147.56" rx="27.95" ry="27.95"/><ellipse class="cls-3" cx="196.71" cy="71.41" rx="37.53" ry="41.43"/><ellipse cx="196.71" cy="72.99" rx="23.23" ry="25.65"/><ellipse class="cls-3" cx="45.89" cy="69.84" rx="37.53" ry="41.43"/><ellipse cx="45.89" cy="71.41" rx="23.23" ry="25.65"/><ellipse class="cls-3" cx="120.23" cy="82.46" rx="74.69" ry="82.46"/><ellipse class="cls-4" cx="90.58" cy="74.96" rx="34.33" ry="38.67"/><ellipse class="cls-4" cx="150.59" cy="74.96" rx="34.33" ry="38.67"/><ellipse class="cls-4" cx="120.3" cy="135.73" rx="39.23" ry="44.19"/><ellipse class="cls-1" cx="90.58" cy="74.96" rx="19.9" ry="22.42"/><ellipse cx="90.87" cy="75.29" rx="8.65" ry="9.75"/><ellipse class="cls-1" cx="150.87" cy="75.29" rx="20.19" ry="22.74"/><ellipse cx="150.59" cy="75.61" rx="7.21" ry="8.12"/><ellipse class="cls-5" cx="110.78" cy="108.76" rx="4.33" ry="4.87"/><ellipse class="cls-5" cx="130.39" cy="108.76" rx="4.33" ry="4.87"/><ellipse class="cls-3" cx="138.47" cy="150.35" rx="7.79" ry="8.77"/><rect class="cls-4" x="53.53" y="270.65" width="50.61" height="41.83" rx="12" ry="12"/><rect class="cls-3" x="37.67" y="164.92" width="55.9" height="147.56" rx="27.95" ry="27.95"/><rect class="cls-4" x="334.24" y="302.65" width="50.61" height="41.83" rx="12" ry="12" transform="translate(522.59 615.13) rotate(-180)"/><rect class="cls-3" x="344.81" y="196.92" width="55.9" height="147.56" rx="27.95" ry="27.95" transform="translate(549.03 509.41) rotate(-180)"/><rect class="cls-6" x="31.58" y="23.92" width="176.43" height="96.08"/><line class="cls-6" x1="31.79" y1="71.96" x2="208.01" y2="71.96"/><polygon class="cls-6" points="0 71.96 31.58 120 31.58 23.92 0 71.96"/><polygon class="cls-6" points="239.5 71.96 207.92 23.92 207.92 120 239.5 71.96"/><path class="cls-7" d="M293,151.6h45.92a3.88,3.88,0,0,0,1.32-7.58l-3.56-1.17a4,4,0,0,1-2.37-2l-14.24-29.47a4.14,4.14,0,0,0-7.32-.09l-15.3,29.65a4,4,0,0,1-2.29,1.94L291.64,144A3.87,3.87,0,0,0,293,151.6Z" transform="translate(-196.5 -32)"/><ellipse class="cls-7" cx="73.06" cy="72.16" rx="25.48" ry="24.42"/><ellipse class="cls-7" cx="166.54" cy="72.16" rx="25.48" ry="24.42"/><rect class="cls-7" x="47.58" y="11" width="144.43" height="12.92"/><rect class="cls-6" x="61.06" y="17.46" width="20.63" height="6.46"/><rect class="cls-6" x="156.22" y="17.46" width="20.63" height="6.46"/><path class="cls-1" d="M1274.07,532.36c0,45.32-45.76,82.07-102.21,82.07" transform="translate(-196.5 -32)"/><path class="cls-2" d="M1171.85,624.3c-4.93,0-8.93-4.42-8.93-9.86s4-9.86,8.93-9.86c25.43,0,49.23-7.87,67-22.15,16.93-13.6,26.26-31.37,26.26-50.05,0-5.45,4-9.86,8.93-9.86s8.93,4.42,8.93,9.86c0,25.16-11.94,48.6-33.62,66C1228.56,615.09,1201,624.3,1171.85,624.3Z" transform="translate(-196.5 -32)"/><ellipse class="cls-2" cx="899.58" cy="594.27" rx="109.36" ry="120.73"/><rect class="cls-2" x="779.5" y="546.92" width="55.9" height="147.56" rx="27.95" ry="27.95"/><rect class="cls-2" x="970.35" y="546.92" width="55.9" height="147.56" rx="27.95" ry="27.95"/><ellipse class="cls-3" cx="975.71" cy="453.41" rx="37.53" ry="41.43"/><ellipse cx="975.71" cy="454.99" rx="23.23" ry="25.65"/><ellipse class="cls-3" cx="824.89" cy="451.84" rx="37.53" ry="41.43"/><ellipse cx="824.89" cy="453.41" rx="23.23" ry="25.65"/><ellipse class="cls-3" cx="899.23" cy="464.46" rx="74.69" ry="82.46"/><ellipse class="cls-4" cx="869.58" cy="456.96" rx="34.33" ry="38.67"/><ellipse class="cls-4" cx="929.59" cy="456.96" rx="34.33" ry="38.67"/><ellipse class="cls-4" cx="899.3" cy="517.73" rx="39.23" ry="44.19"/><ellipse class="cls-1" cx="869.58" cy="456.96" rx="19.9" ry="22.42"/><ellipse cx="869.87" cy="457.29" rx="8.65" ry="9.75"/><ellipse class="cls-1" cx="929.87" cy="457.29" rx="20.19" ry="22.74"/><ellipse cx="929.59" cy="457.61" rx="7.21" ry="8.12"/><ellipse class="cls-5" cx="889.78" cy="490.76" rx="4.33" ry="4.87"/><ellipse class="cls-5" cx="909.39" cy="490.76" rx="4.33" ry="4.87"/><ellipse class="cls-3" cx="917.47" cy="532.35" rx="7.79" ry="8.77"/><rect class="cls-4" x="832.53" y="652.65" width="50.61" height="41.83" rx="12" ry="12"/><rect class="cls-3" x="816.67" y="546.92" width="55.9" height="147.56" rx="27.95" ry="27.95"/><rect class="cls-4" x="1113.24" y="684.65" width="50.61" height="41.83" rx="12" ry="12" transform="translate(2080.59 1379.13) rotate(-180)"/><rect class="cls-3" x="1123.81" y="578.92" width="55.9" height="147.56" rx="27.95" ry="27.95" transform="translate(2107.03 1273.41) rotate(-180)"/></svg>