<?xml version="1.0" encoding="utf-8"?>
<!-- Generator: Adobe Illustrator 21.0.0, SVG Export Plug-In . SVG Version: 6.00 Build 0)  -->
<svg version="1.1" id="Layer_1" xmlns="http://www.w3.org/2000/svg" xmlns:xlink="http://www.w3.org/1999/xlink" x="0px" y="0px"
	 viewBox="0 0 2661.5 1467.2" style="enable-background:new 0 0 2661.5 1467.2;" xml:space="preserve">
<style type="text/css">
	.st0{clip-path:url(#SVGID_2_);}
	.st1{fill:url(#SVGID_3_);}
	.st2{fill:url(#SVGID_4_);}
	.st3{fill:url(#SVGID_5_);}
	.st4{fill:#1A1A1A;}
	.st5{opacity:0.3;}
	.st6{fill:none;}
	.st7{fill:#FFFFFF;}
	.st8{fill:url(#SVGID_6_);}
</style>
<title>nightSkyEnd</title>
<g>
	<defs>
		<rect id="SVGID_1_" width="2672.1" height="1467.2"/>
	</defs>
	<clipPath id="SVGID_2_">
		<use xlink:href="#SVGID_1_"  style="overflow:visible;"/>
	</clipPath>
	<g class="st0">
		
			<linearGradient id="SVGID_3_" gradientUnits="userSpaceOnUse" x1="1333.0996" y1="1468" x2="1333.0996" y2="0.8102" gradientTransform="matrix(1 0 0 -1 0 1468)">
			<stop  offset="0" style="stop-color:#1C0A2D"/>
			<stop  offset="0.48" style="stop-color:#1F0438"/>
			<stop  offset="0.99" style="stop-color:#3A0F60"/>
		</linearGradient>
		<rect class="st1" width="2666.2" height="1467.2"/>
		
			<radialGradient id="SVGID_4_" cx="1333.1538" cy="1410.2222" r="781.04" gradientTransform="matrix(2.2836 0 0 -0.6877 -977.6714 2235.0767)" gradientUnits="userSpaceOnUse">
			<stop  offset="0" style="stop-color:#ED1E79;stop-opacity:0.4"/>
			<stop  offset="1" style="stop-color:#000000;stop-opacity:0"/>
		</radialGradient>
		<ellipse class="st2" cx="2076.7" cy="1260.9" rx="2303.2" ry="437.5"/>
		
			<radialGradient id="SVGID_5_" cx="1051.5487" cy="1345.683" r="759.2717" gradientTransform="matrix(2.2056 0 0 -0.7833 -520.5139 2392.2646)" gradientUnits="userSpaceOnUse">
			<stop  offset="0" style="stop-color:#F26A4E;stop-opacity:0.7"/>
			<stop  offset="1" style="stop-color:#000000;stop-opacity:0"/>
		</radialGradient>
		<ellipse class="st3" cx="1792.8" cy="1338.2" rx="2210.4" ry="629.5"/>
		<path class="st4" d="M670.9,1863.8c-24.1-318.5,486.5-615.2,1140.7-662.8s1204,172.2,1228.1,490.7"/>
		<g class="st5">
			<rect x="1264" y="-33.7" class="st6" width="8.5" height="8.3"/>
			<ellipse class="st7" cx="1268.3" cy="-29.5" rx="4.3" ry="4.2"/>
			<rect x="782.3" y="-272" class="st6" width="7.9" height="7.7"/>
			<ellipse class="st7" cx="786.2" cy="-268.2" rx="3.9" ry="3.9"/>
		</g>
		<g class="st5">
			<rect x="607.6" y="-457.9" class="st6" width="8.6" height="8.4"/>
			<ellipse class="st7" cx="611.8" cy="-453.7" rx="4.3" ry="4.2"/>
			<rect x="458.3" y="-150.3" class="st6" width="8.2" height="8"/>
			<ellipse class="st7" cx="462.4" cy="-146.3" rx="4.1" ry="4"/>
			<rect x="986.5" y="639.8" class="st6" width="6.9" height="6.8"/>
			<ellipse class="st7" cx="989.9" cy="643.2" rx="3.5" ry="3.4"/>
			<rect x="1615.6" y="574.6" class="st6" width="7.7" height="7.5"/>
			<ellipse class="st7" cx="1619.5" cy="578.4" rx="3.8" ry="3.8"/>
			<rect x="1843.9" y="471.9" class="st6" width="5.3" height="5.2"/>
			<ellipse class="st7" cx="1846.5" cy="474.4" rx="2.6" ry="2.6"/>
			<rect x="2085.7" y="380.8" class="st6" width="5.2" height="5.1"/>
			<ellipse class="st7" cx="2088.3" cy="383.4" rx="2.6" ry="2.6"/>
			<rect x="1672" y="-397.2" class="st6" width="8.3" height="8.1"/>
			<ellipse class="st7" cx="1676.2" cy="-393.1" rx="4.2" ry="4.1"/>
			<rect x="1365.6" y="-334.9" class="st6" width="9" height="8.8"/>
			<ellipse class="st7" cx="1370.1" cy="-330.5" rx="4.5" ry="4.4"/>
			<rect x="961.3" y="-36.6" class="st6" width="8" height="7.9"/>
			<ellipse class="st7" cx="965.3" cy="-32.7" rx="4" ry="3.9"/>
			<rect x="476.9" y="270.4" class="st6" width="8.4" height="8.2"/>
			<ellipse class="st7" cx="481.1" cy="274.5" rx="4.2" ry="4.1"/>
			<rect x="793.1" y="1202" class="st6" width="11" height="10.7"/>
			<ellipse class="st7" cx="798.6" cy="1207.4" rx="5.5" ry="5.4"/>
			<rect x="1186.5" y="1038.5" class="st6" width="6.5" height="6.4"/>
			<ellipse class="st7" cx="1189.8" cy="1041.7" rx="3.3" ry="3.2"/>
			<rect x="1616.3" y="712.9" class="st6" width="5.1" height="5"/>
			<ellipse class="st7" cx="1618.9" cy="715.4" rx="2.5" ry="2.5"/>
			<rect x="2027.1" y="436.3" class="st6" width="4.7" height="4.6"/>
			<ellipse class="st7" cx="2029.5" cy="438.6" rx="2.4" ry="2.3"/>
			<rect x="1752.7" y="-402.3" class="st6" width="8.6" height="8.4"/>
			<ellipse class="st7" cx="1757" cy="-398.1" rx="4.3" ry="4.2"/>
			<rect x="1366.4" y="-98.3" class="st6" width="7.2" height="7"/>
			<ellipse class="st7" cx="1370" cy="-94.8" rx="3.6" ry="3.5"/>
			<rect x="1038" y="283.4" class="st6" width="10.1" height="9.9"/>
			<ellipse class="st7" cx="1043.1" cy="288.3" rx="5.1" ry="5"/>
			<rect x="1809.6" y="840.7" class="st6" width="9.4" height="9.2"/>
			<ellipse class="st7" cx="1814.3" cy="845.3" rx="4.7" ry="4.6"/>
			<rect x="2039.7" y="632.1" class="st6" width="9.9" height="9.7"/>
			<ellipse class="st7" cx="2044.6" cy="636.9" rx="4.9" ry="4.8"/>
			<rect x="2314.8" y="381" class="st6" width="5.1" height="4.9"/>
			<ellipse class="st7" cx="2317.3" cy="383.5" rx="2.5" ry="2.5"/>
			<rect x="2714.7" y="156.8" class="st6" width="5.6" height="5.4"/>
			<ellipse class="st7" cx="2717.5" cy="159.5" rx="2.8" ry="2.7"/>
		</g>
		<g class="st5">
			<rect x="1883.3" y="-740.5" class="st6" width="7.9" height="7.7"/>
			<ellipse class="st7" cx="1887.3" cy="-736.7" rx="4" ry="3.9"/>
			<rect x="1963.2" y="173.2" class="st6" width="4.6" height="4.5"/>
			<ellipse class="st7" cx="1965.5" cy="175.5" rx="2.3" ry="2.3"/>
			<rect x="1336.7" y="-693.1" class="st6" width="9.6" height="9.4"/>
			<ellipse class="st7" cx="1341.5" cy="-688.4" rx="4.8" ry="4.7"/>
			<rect x="1052.9" y="-701.7" class="st6" width="5.9" height="5.8"/>
			<ellipse class="st7" cx="1055.8" cy="-698.8" rx="2.9" ry="2.9"/>
			<rect x="319.9" y="42.2" class="st6" width="7.3" height="7.2"/>
			<ellipse class="st7" cx="323.6" cy="45.8" rx="3.7" ry="3.6"/>
			<rect x="1112.6" y="765.5" class="st6" width="8.6" height="8.4"/>
			<ellipse class="st7" cx="1116.9" cy="769.7" rx="4.3" ry="4.2"/>
			<rect x="1526.9" y="703.5" class="st6" width="7.9" height="7.8"/>
			<ellipse class="st7" cx="1530.9" cy="707.4" rx="4" ry="3.9"/>
			<rect x="1475.7" y="-222.6" class="st6" width="4" height="3.9"/>
			<ellipse class="st7" cx="1477.7" cy="-220.7" rx="2" ry="1.9"/>
			<rect x="965.7" y="-347.4" class="st6" width="10.8" height="10.5"/>
			<ellipse class="st7" cx="971.1" cy="-342.2" rx="5.4" ry="5.3"/>
			<rect x="710.9" y="-360.7" class="st6" width="3.9" height="3.8"/>
			<ellipse class="st7" cx="712.8" cy="-358.8" rx="1.9" ry="1.9"/>
			<rect x="169.4" y="-108.6" class="st6" width="6" height="5.9"/>
			<ellipse class="st7" cx="172.4" cy="-105.6" rx="3" ry="2.9"/>
			<rect x="-397.8" y="-2.1" class="st6" width="10.4" height="10.1"/>
			<ellipse class="st7" cx="-392.6" cy="3" rx="5.2" ry="5.1"/>
			<rect x="310.9" y="949.7" class="st6" width="6.9" height="6.7"/>
			<ellipse class="st7" cx="314.3" cy="953.1" rx="3.4" ry="3.3"/>
			<rect x="805.5" y="930.7" class="st6" width="10.6" height="10.4"/>
			<ellipse class="st7" cx="810.8" cy="935.9" rx="5.3" ry="5.2"/>
			<rect x="1333.8" y="774.1" class="st6" width="9" height="8.8"/>
			<ellipse class="st7" cx="1338.3" cy="778.5" rx="4.5" ry="4.4"/>
			<rect x="1668.5" y="702.4" class="st6" width="6.1" height="6"/>
			<ellipse class="st7" cx="1671.5" cy="705.3" rx="3" ry="3"/>
			<rect x="1897.6" y="737.5" class="st6" width="5.1" height="5"/>
			<ellipse class="st7" cx="1900.1" cy="740" rx="2.6" ry="2.5"/>
			<rect x="2120.3" y="-228.6" class="st6" width="9" height="8.8"/>
			<ellipse class="st7" cx="2124.8" cy="-224.2" rx="4.5" ry="4.4"/>
			<rect x="1811.1" y="-388.3" class="st6" width="6" height="5.9"/>
			<ellipse class="st7" cx="1814.1" cy="-385.3" rx="3" ry="2.9"/>
			<rect x="1322.2" y="-572.8" class="st6" width="7.3" height="7.2"/>
			<ellipse class="st7" cx="1325.8" cy="-569.2" rx="3.7" ry="3.6"/>
		</g>
		<g class="st5">
			<rect x="772.3" y="1075" class="st6" width="9.5" height="9.3"/>
			<ellipse class="st7" cx="777" cy="1079.7" rx="4.8" ry="4.7"/>
			<rect x="941.2" y="1054" class="st6" width="4.8" height="4.7"/>
			<ellipse class="st7" cx="943.6" cy="1056.4" rx="2.4" ry="2.3"/>
			<rect x="1143.6" y="893" class="st6" width="7.7" height="7.6"/>
			<ellipse class="st7" cx="1147.4" cy="896.8" rx="3.9" ry="3.8"/>
			<rect x="1629.4" y="938.6" class="st6" width="10" height="9.8"/>
			<ellipse class="st7" cx="1634.4" cy="943.5" rx="5" ry="4.9"/>
			<rect x="2011.4" y="875.7" class="st6" width="9.9" height="9.7"/>
			<ellipse class="st7" cx="2016.4" cy="880.6" rx="5" ry="4.9"/>
			<rect x="2289.2" y="875.9" class="st6" width="8.4" height="8.2"/>
			<ellipse class="st7" cx="2293.4" cy="880" rx="4.2" ry="4.1"/>
		</g>
		<g class="st5">
			<rect x="1519.5" y="407.7" class="st6" width="7.6" height="7.5"/>
			<ellipse class="st7" cx="1523.4" cy="411.4" rx="3.8" ry="3.7"/>
			<rect x="1160.6" y="408.1" class="st6" width="10.8" height="10.5"/>
			<ellipse class="st7" cx="1165.9" cy="413.4" rx="5.4" ry="5.3"/>
			<rect x="719.4" y="557.9" class="st6" width="5.9" height="5.8"/>
			<ellipse class="st7" cx="722.3" cy="560.8" rx="3" ry="2.9"/>
		</g>
		<g class="st5">
			<rect x="1575" y="153.7" class="st6" width="6.5" height="6.3"/>
			<ellipse class="st7" cx="1578.2" cy="156.9" rx="3.2" ry="3.2"/>
			<rect x="1187.2" y="207.8" class="st6" width="10.3" height="10.1"/>
			<ellipse class="st7" cx="1192.3" cy="212.9" rx="5.2" ry="5"/>
		</g>
		<g class="st5">
			<rect x="998.6" y="891.7" class="st6" width="8" height="7.9"/>
			<ellipse class="st7" cx="1002.7" cy="895.6" rx="4" ry="3.9"/>
			<rect x="1396" y="787.3" class="st6" width="4.9" height="4.8"/>
			<ellipse class="st7" cx="1398.5" cy="789.7" rx="2.4" ry="2.4"/>
			<rect x="1777" y="626.1" class="st6" width="4.5" height="4.4"/>
			<ellipse class="st7" cx="1779.2" cy="628.3" rx="2.3" ry="2.2"/>
			<rect x="2145.9" y="579.8" class="st6" width="7.2" height="7.1"/>
			<ellipse class="st7" cx="2149.5" cy="583.4" rx="3.6" ry="3.6"/>
		</g>
		<g class="st5">
			<rect x="1417" y="89.6" class="st6" width="5.5" height="5.4"/>
			<ellipse class="st7" cx="1419.8" cy="92.3" rx="2.8" ry="2.7"/>
			<rect x="1087.8" y="200.1" class="st6" width="10.4" height="10.2"/>
			<ellipse class="st7" cx="1093" cy="205.2" rx="5.2" ry="5.1"/>
			<rect x="513.2" y="344.1" class="st6" width="10.5" height="10.3"/>
			<ellipse class="st7" cx="518.5" cy="349.3" rx="5.3" ry="5.1"/>
			<rect x="194.4" y="500.6" class="st6" width="6.8" height="6.7"/>
			<ellipse class="st7" cx="197.8" cy="503.9" rx="3.4" ry="3.3"/>
		</g>
		<g class="st5">
			<rect x="1960.7" y="669.1" class="st6" width="4.6" height="4.5"/>
			<ellipse class="st7" cx="1963.1" cy="671.4" rx="2.3" ry="2.3"/>
			<rect x="1994.1" y="199.6" class="st6" width="9.1" height="8.9"/>
			<ellipse class="st7" cx="1998.6" cy="204" rx="4.5" ry="4.4"/>
		</g>
		<g class="st5">
			<rect x="986.4" y="562.7" class="st6" width="5.4" height="5.3"/>
			<ellipse class="st7" cx="989.1" cy="565.4" rx="2.7" ry="2.7"/>
			<rect x="424.2" y="872.2" class="st6" width="10" height="9.8"/>
			<ellipse class="st7" cx="429.2" cy="877.1" rx="5" ry="4.9"/>
			<rect x="217.6" y="1121.1" class="st6" width="5.9" height="5.8"/>
			<ellipse class="st7" cx="220.6" cy="1124" rx="3" ry="2.9"/>
		</g>
		<g class="st5">
			<rect x="2208.4" y="-258.9" class="st6" width="4.1" height="4"/>
			<ellipse class="st7" cx="2210.4" cy="-256.9" rx="2" ry="2"/>
			<rect x="1979.7" y="858.1" class="st6" width="8.9" height="8.7"/>
			<ellipse class="st7" cx="1984.2" cy="862.4" rx="4.5" ry="4.4"/>
			<rect x="2805.5" y="790.5" class="st6" width="7.7" height="7.5"/>
			<ellipse class="st7" cx="2809.3" cy="794.3" rx="3.9" ry="3.8"/>
			<rect x="3127.1" y="364.4" class="st6" width="10.1" height="9.8"/>
			<ellipse class="st7" cx="3132.1" cy="369.4" rx="5" ry="4.9"/>
			<rect x="2944.1" y="-599.2" class="st6" width="4.2" height="4.1"/>
			<ellipse class="st7" cx="2946.2" cy="-597.1" rx="2.1" ry="2.1"/>
			<rect x="2512.1" y="-627.2" class="st6" width="8.8" height="8.6"/>
			<ellipse class="st7" cx="2516.5" cy="-622.9" rx="4.4" ry="4.3"/>
			<rect x="2245.5" y="-577.6" class="st6" width="8" height="7.8"/>
			<ellipse class="st7" cx="2249.4" cy="-573.7" rx="4" ry="3.9"/>
			<rect x="2037.6" y="-356.3" class="st6" width="6.6" height="6.4"/>
			<ellipse class="st7" cx="2040.9" cy="-353.1" rx="3.3" ry="3.2"/>
			<rect x="1736.8" y="-228.6" class="st6" width="4.8" height="4.7"/>
			<ellipse class="st7" cx="1739.2" cy="-226.2" rx="2.4" ry="2.3"/>
			<rect x="2219.8" y="555.4" class="st6" width="9.7" height="9.5"/>
			<ellipse class="st7" cx="2224.7" cy="560.2" rx="4.9" ry="4.8"/>
		</g>
		<g class="st5">
			<rect x="531.2" y="784.2" class="st6" width="11" height="10.7"/>
			<ellipse class="st7" cx="536.7" cy="789.5" rx="5.5" ry="5.4"/>
			<rect x="862.6" y="813.4" class="st6" width="8.4" height="8.2"/>
			<ellipse class="st7" cx="866.7" cy="817.5" rx="4.2" ry="4.1"/>
			<rect x="1373.4" y="716.9" class="st6" width="6.6" height="6.5"/>
			<ellipse class="st7" cx="1376.6" cy="720.1" rx="3.3" ry="3.2"/>
			<rect x="855.4" y="-148.3" class="st6" width="6.4" height="6.2"/>
			<ellipse class="st7" cx="858.6" cy="-145.2" rx="3.2" ry="3.1"/>
			<rect x="377.1" y="381.5" class="st6" width="5.3" height="5.2"/>
			<ellipse class="st7" cx="379.8" cy="384.1" rx="2.7" ry="2.6"/>
			<rect x="853.9" y="1129.6" class="st6" width="6.6" height="6.4"/>
			<ellipse class="st7" cx="857.2" cy="1132.9" rx="3.3" ry="3.2"/>
			<rect x="986.1" y="816" class="st6" width="9.1" height="8.9"/>
			<ellipse class="st7" cx="990.7" cy="820.5" rx="4.5" ry="4.5"/>
			<rect x="1080.8" y="497.6" class="st6" width="10.4" height="10.2"/>
			<ellipse class="st7" cx="1086" cy="502.7" rx="5.2" ry="5.1"/>
			<rect x="1206.2" y="104.9" class="st6" width="5.7" height="5.6"/>
			<ellipse class="st7" cx="1209" cy="107.7" rx="2.8" ry="2.8"/>
			<rect x="746" y="-835.2" class="st6" width="8.4" height="8.2"/>
			<ellipse class="st7" cx="750.1" cy="-831.1" rx="4.2" ry="4.1"/>
			<rect x="288.7" y="-499.7" class="st6" width="8.6" height="8.4"/>
			<ellipse class="st7" cx="293" cy="-495.5" rx="4.3" ry="4.2"/>
			<rect x="-180.2" y="-174.6" class="st6" width="9" height="8.8"/>
			<ellipse class="st7" cx="-175.7" cy="-170.2" rx="4.5" ry="4.4"/>
			<rect x="-459.9" y="29" class="st6" width="10.2" height="10"/>
			<ellipse class="st7" cx="-454.9" cy="33.9" rx="5.1" ry="5"/>
			<rect x="-814.8" y="447.1" class="st6" width="5.3" height="5.2"/>
			<ellipse class="st7" cx="-812.2" cy="449.7" rx="2.6" ry="2.6"/>
			<rect x="-340.9" y="1232.3" class="st6" width="9.3" height="9.1"/>
			<ellipse class="st7" cx="-336.2" cy="1236.8" rx="4.6" ry="4.5"/>
			<rect x="-153.9" y="1123.5" class="st6" width="7.2" height="7"/>
			<ellipse class="st7" cx="-150.3" cy="1127" rx="3.6" ry="3.5"/>
			<rect x="176.9" y="1151" class="st6" width="6.1" height="6"/>
			<ellipse class="st7" cx="180" cy="1154" rx="3.1" ry="3"/>
			<rect x="411.8" y="963.5" class="st6" width="8.3" height="8.1"/>
			<ellipse class="st7" cx="415.9" cy="967.6" rx="4.1" ry="4"/>
			<rect x="773.5" y="881.3" class="st6" width="10.3" height="10.1"/>
			<ellipse class="st7" cx="778.7" cy="886.3" rx="5.2" ry="5.1"/>
			<rect x="1198" y="777.2" class="st6" width="9.9" height="9.7"/>
			<ellipse class="st7" cx="1203" cy="782" rx="4.9" ry="4.8"/>
			<rect x="1671.7" y="786.9" class="st6" width="5.4" height="5.3"/>
			<ellipse class="st7" cx="1674.4" cy="789.5" rx="2.7" ry="2.6"/>
			<rect x="2013.2" y="767.4" class="st6" width="9.4" height="9.2"/>
			<ellipse class="st7" cx="2017.9" cy="772" rx="4.7" ry="4.6"/>
			<rect x="1876.9" y="-311" class="st6" width="9" height="8.8"/>
			<ellipse class="st7" cx="1881.4" cy="-306.6" rx="4.5" ry="4.4"/>
			<rect x="1354.9" y="-265.9" class="st6" width="10.8" height="10.6"/>
			<ellipse class="st7" cx="1360.3" cy="-260.6" rx="5.4" ry="5.3"/>
			<rect x="1652.2" y="764.4" class="st6" width="5.5" height="5.4"/>
			<ellipse class="st7" cx="1655" cy="767.1" rx="2.8" ry="2.7"/>
			<rect x="2145.7" y="749.1" class="st6" width="10.4" height="10.2"/>
			<ellipse class="st7" cx="2151" cy="754.2" rx="5.2" ry="5.1"/>
			<rect x="2146.1" y="-219.9" class="st6" width="7.7" height="7.5"/>
			<ellipse class="st7" cx="2149.9" cy="-216.1" rx="3.8" ry="3.7"/>
			<rect x="1898.6" y="-180.6" class="st6" width="10.6" height="10.3"/>
			<ellipse class="st7" cx="1903.9" cy="-175.4" rx="5.3" ry="5.2"/>
		</g>
		<g class="st5">
			<rect x="1293.2" y="406.2" class="st6" width="8.5" height="8.3"/>
			<ellipse class="st7" cx="1297.4" cy="410.3" rx="4.2" ry="4.1"/>
			<rect x="1262.2" y="369" class="st6" width="10.3" height="10.1"/>
			<ellipse class="st7" cx="1267.3" cy="374.1" rx="5.2" ry="5"/>
			<rect x="1153.6" y="359.7" class="st6" width="3.7" height="3.7"/>
			<ellipse class="st7" cx="1155.5" cy="361.5" rx="1.9" ry="1.8"/>
			<rect x="976.7" y="1152" class="st6" width="6.7" height="6.6"/>
			<ellipse class="st7" cx="980.1" cy="1155.3" rx="3.4" ry="3.3"/>
			<rect x="1069.9" y="771.4" class="st6" width="6.7" height="6.5"/>
			<ellipse class="st7" cx="1073.2" cy="774.7" rx="3.3" ry="3.3"/>
			<rect x="1127" y="692.6" class="st6" width="9.1" height="8.9"/>
			<ellipse class="st7" cx="1131.6" cy="697.1" rx="4.5" ry="4.5"/>
			<rect x="1318.2" y="723.4" class="st6" width="5.7" height="5.6"/>
			<ellipse class="st7" cx="1321.1" cy="726.2" rx="2.9" ry="2.8"/>
			<rect x="1150.4" y="589.6" class="st6" width="7.4" height="7.3"/>
			<ellipse class="st7" cx="1154.1" cy="593.3" rx="3.7" ry="3.6"/>
		</g>
		<g class="st5">
			<rect x="752.2" y="138.5" class="st6" width="10" height="9.8"/>
			<ellipse class="st7" cx="757.3" cy="143.4" rx="5" ry="4.9"/>
			<rect x="379" y="178.1" class="st6" width="7.2" height="7.1"/>
			<ellipse class="st7" cx="382.6" cy="181.6" rx="3.6" ry="3.5"/>
			<rect x="418.8" y="1184" class="st6" width="8.3" height="8.2"/>
			<ellipse class="st7" cx="423" cy="1188.1" rx="4.2" ry="4.1"/>
			<rect x="877.7" y="926.5" class="st6" width="6.6" height="6.5"/>
			<ellipse class="st7" cx="881" cy="929.8" rx="3.3" ry="3.2"/>
			<rect x="593.7" y="-191.8" class="st6" width="8.8" height="8.7"/>
			<ellipse class="st7" cx="598.1" cy="-187.5" rx="4.4" ry="4.3"/>
			<rect x="326.6" y="73.1" class="st6" width="7.4" height="7.2"/>
			<ellipse class="st7" cx="330.3" cy="76.7" rx="3.7" ry="3.6"/>
		</g>
		<g class="st5">
			<rect x="1218.7" y="475.7" class="st6" width="8.3" height="8.1"/>
			<ellipse class="st7" cx="1222.8" cy="479.8" rx="4.1" ry="4.1"/>
			<rect x="686.4" y="101.7" class="st6" width="8.9" height="8.7"/>
			<ellipse class="st7" cx="690.9" cy="106" rx="4.5" ry="4.4"/>
		</g>
		<g class="st5">
			<rect x="524" y="221.5" class="st6" width="7.6" height="7.4"/>
			<ellipse class="st7" cx="527.8" cy="225.2" rx="3.8" ry="3.7"/>
			<rect x="221.8" y="460.8" class="st6" width="5.3" height="5.1"/>
			<ellipse class="st7" cx="224.4" cy="463.4" rx="2.6" ry="2.6"/>
			<rect x="40.2" y="861.3" class="st6" width="9.9" height="9.7"/>
			<ellipse class="st7" cx="45.2" cy="866.2" rx="5" ry="4.9"/>
		</g>
		<path d="M1912.1,804.3h1.3c2.6,0,5.1,0.7,7.3,1.9c1.7,1.1,3.3,2.3,4.7,3.8c2.7,2.6,4.9,5.7,6.5,9c1.2,2.6,2.1,5.4,2.5,8.3
			c0.2,1.4,0.3,2.7,0.4,4.1c1,10.6,1.8,21.1,2.6,31.7c0,1.6,0.3,3.2,0.7,4.8c0.4,1.2,1.2,2.2,2.3,2.8c1.6,0.7,3.3,0.9,5.1,0.8
			c2.5-0.1,4.9,0.4,7.2,1.3c1.5,0.7,2.8,1.7,3.8,3c1.2,1.8,2.1,3.9,2.5,6.1c0.7,3.6,1,7.2,0.9,10.8c0,12.4-0.1,24.8,0,37.3
			c0.1,12.4,0.5,24.8,0.9,37.3c0.6,16.7,1.2,33.5,1.5,50.2v1.2c0,2.4-0.5,4.8-1.5,7c-0.8,2-2.2,3.7-3.9,5c-1.6,1.2-3.5,1.9-5.4,2.2
			c-1.8,0.3-3.7,0.3-5.5,0c0.9-2.3,2-4.6,2.6-7s1.6-5.2,2.2-7.9c0.5-2,0.7-4.1,0.8-6.2c-0.1-2.8,0.3-5.5,1.2-8.1
			c0.3-0.7,0.6-1.3,0.9-1.9c0.5-1.3,0.7-2.6,0.5-4c-0.3-2.3-0.8-4.5-1.5-6.7c-2.4-8.4-5.3-16.6-7.5-25c-0.7-2.5-1.3-5.1-1.7-7.6
			c-0.8-5.6-0.5-11.3-0.8-16.9c-0.1-2.1,0-4.3,0-6.4h-2.2c0,6.3-0.3,12.6,0,18.9c0.7,11.8,2,23.5,2.8,35.3
			c0.4,6.3,0.5,12.6,0.6,18.8c0.1,9.7,0.1,19.3,0.3,29c0,2.8,0.1,5.6,0.2,8.4c0.3,4,2.1,7.6,3.2,11.5c1.3,4.2,2.8,8.3,4.1,12.5
			c2,6.2,3.4,12.4,4.8,18.7c0.8,3.7,1.5,7.4,2.3,11c0,1.5-0.1,3-0.5,4.4c-0.1,0.8-0.1,1.5,0,2.3c0.3,3.3,0.8,6.7,1.3,10
			c0.5,2.7,0.7,5.4,0.8,8.1c-0.1,6.9-1.9,13.7-5.2,19.8c-1.1,2.1-2.5,4.2-3.7,6.2c-4.3-1.9-8.6-3.8-13-5.4
			c-4.7-1.7-9.8-2.6-14.9-2.5c-1.8,11.1-1,22.4,2.1,33.2c0.6,2.2,1.3,4.3,2.1,6.5c0.8,2,1.5,4,2,6.1c0.4,1.6,0.3,3.3-0.4,4.8
			c-0.9,1.7-2.2,3.1-3.9,4c-1.5,1.1-3.2,1.9-4.9,2.3c-2.1,0.4-4.2-0.1-5.9-1.3c-1.7-1.5-2.7-3.5-2.8-5.7c-0.8-13.1-1.3-26.2-2-39.2
			c-0.1-1.6-0.4-3.3-0.5-4.9h-1.7c-0.2,1.9-0.5,3.7-0.6,5.6c-0.1,1.2-0.1,2.4,0,3.6c0.7,14.2,1.6,28.4,2.4,42.6c0,1.6,0,3.2,0,4.9
			c-2.4,0-4.9,0-7.3,0h-3.7c-4.1-0.1-8.2-0.7-12.2-1.8c-0.3,0-0.8-0.2-0.7-0.6c0.4-0.5,0.9-0.9,1.5-1.2c0.9-0.5,2-0.8,2.7-1.4
			s2.2-1.4,3.4-2c1.4-0.6,2.6-1.7,3.3-3.1c0.4-1.1,0.6-2.2,0.6-3.3c0.2-5.6-0.3-11.2-1.5-16.7c-1.1-5.4-2.6-10.8-3.9-16.2
			c-3.7-13.6-6.6-27.5-9.8-41.2c-0.3-0.8-0.3-1.6-0.2-2.4c1-3.7,1-7.6-0.2-11.3c-1-3.5-2.6-6.9-3.9-10.3c-1.3-3.5-2-6.8-2.9-10.3
			c-1.2-4.8-2.1-9.6-3.1-14.3c-0.8-4.4-1.7-8.8-2.4-13.2c-1-6.4-1.8-12.8-2.9-19.1c-0.3-1.5-1.3-2.8-2.8-3.4
			c-1.6-0.5-3.2-1.2-4.6-2.2c-1.7-1.2-3.2-2.8-4.2-4.7c-1.3-2.4-2.2-4.9-2.8-7.5v-0.6c0.2-1.6,0.5-3.2,0.7-4.8
			c1.8-11.3,3.5-22.7,5.3-34c0.8-5,1.5-10.1,2.4-15.1c1-6.1,2.1-12.1,2.8-18.2c0.8-6.9,1.3-13.8,1.5-20.7c0.1-5.3,0.2-10.7,0-16
			c-0.3-6.7-1-13.4-1.2-20c-0.2-2.5,0.3-5.1,1.2-7.4c1.5-3.3,4.3-6,7.8-7.3c2.3-0.7,4.7-1.2,7.1-1.6c3.1-16,6-32.1,9.5-48
			c0.3-1.5,0.7-2.9,1.1-4.3c1.4-3.7,3.4-7.2,5.7-10.4c0.6-0.8,1.3-1.5,2.2-1.9c1.4-0.7,2.8-1.2,4.2-1.9c0.9-0.4,2,0,3-0.3
			C1907.5,804.8,1909.8,804.5,1912.1,804.3 M1880.5,923c0,6.4,0,12.8,0,19.2c0.7-1.2,1.2-2.6,1.6-4c0.9-3.3,1-6.8,0.5-10.1
			C1882.4,926.3,1881.6,924.5,1880.5,923 M1858.1,1020.3c-0.2,1.3,0.2,2.7,1.1,3.7c0.4,0.6,1,1.1,1.7,1.4c1.4,0.3,2.8,0.5,4.3,0.6
			c0.3-1.7,0.5-3.4,0.8-5.2c-1.1,1-2.2,2-3.4,3c-1-2.2-2-4.3-2.9-6.4C1858.9,1018.1,1858.4,1019.2,1858.1,1020.3z"/>
		
			<radialGradient id="SVGID_6_" cx="1558.5652" cy="-25102.6328" r="473.7" gradientTransform="matrix(-1.7762 0.7833 1.951830e-02 3.820807e-02 3773.0232 539.9374)" gradientUnits="userSpaceOnUse">
			<stop  offset="0" style="stop-color:#B3B3B3"/>
			<stop  offset="0.11" style="stop-color:#9A9A9A;stop-opacity:0.86"/>
			<stop  offset="0.42" style="stop-color:#595959;stop-opacity:0.49"/>
			<stop  offset="0.69" style="stop-color:#292929;stop-opacity:0.23"/>
			<stop  offset="0.89" style="stop-color:#0B0B0B;stop-opacity:6.000000e-02"/>
			<stop  offset="1" style="stop-color:#000000;stop-opacity:0"/>
		</radialGradient>
		<path class="st8" d="M468.4,702.8l888.8-390.6l92.2,201L560.7,903.8l-43.7-95.2l-0.2-0.4c-6.1-2.7-9.2-9.4-7.1-15.6l0,0
			L468.4,702.8z"/>
		<rect class="st6" width="2672.1" height="1467.2"/>
	</g>
</g>
</svg>
