<svg id="Layer_1" data-name="Layer 1" xmlns="http://www.w3.org/2000/svg" viewBox="0 0 520.05 657.07"><defs><style>.cls-1{fill:#f2f2f2;}.cls-1,.cls-2{stroke:#000;}.cls-1,.cls-2,.cls-3{stroke-miterlimit:10;}.cls-1,.cls-3{stroke-width:10px;}.cls-2,.cls-4{fill:none;}.cls-2{stroke-linecap:round;stroke-width:20px;}.cls-3{stroke:#ffeb3b;}.cls-5{fill:#006837;}.cls-6{fill:#39b54a;}.cls-7{fill:#009245;}.cls-8{fill:#95ca5b;}.cls-9{fill:#fff;}.cls-10{fill:#2e3192;}.cls-11{fill:blue;}.cls-12{fill:#29abe2;}.cls-13{fill:#0071bc;}</style></defs><title>quizCreationOptionOne</title><path class="cls-1" d="M952.2,124.83c-84.37-4.71-155.09,66.66-151.82,153.24a149.1,149.1,0,0,0,34.09,89.7,87.37,87.37,0,0,1,19.68,55.75v36.39c0,16.52,13.06,29.91,29.17,29.91h121.85c16.11,0,29.17-13.39,29.17-29.91v-36.4a88.9,88.9,0,0,1,20.16-56.32,149.28,149.28,0,0,0,33.73-94.94C1088.22,193.45,1028,129.06,952.2,124.83Z" transform="translate(-682.98 -14.93)"/><line class="cls-2" x1="329.05" y1="504.68" x2="191.81" y2="503.81"/><line class="cls-2" x1="329.05" y1="534.03" x2="191.81" y2="533.17"/><line class="cls-2" x1="329.05" y1="563.39" x2="191.81" y2="562.53"/><path class="cls-2" d="M646.5,62" transform="translate(-682.98 -14.93)"/><path d="M987.11,606.81c11.3,0,19.05,11.54,15.17,22.42C993.36,654.19,970,672,942.56,672c-27.59,0-51.07-18-59.86-43.21-3.74-10.72,4.21-22,15.32-22Z" transform="translate(-682.98 -14.93)"/><line class="cls-3" x1="260.02" y1="0.07" x2="261.27" y2="91.55"/><line class="cls-3" x1="77.02" y1="68.07" x2="143.49" y2="136.97"/><line class="cls-3" x1="446.02" y1="68.07" x2="379.05" y2="136.97"/><line class="cls-3" x1="0.02" y1="240.07" x2="99.62" y2="239.62"/><line class="cls-3" x1="422.93" y1="239.62" x2="520.02" y2="240.07"/><ellipse class="cls-4" cx="278.59" cy="265.84" rx="3.44" ry="4.27"/><ellipse class="cls-4" cx="240.58" cy="265.39" rx="3.44" ry="4.27"/><path class="cls-5" d="M881.83,216.17l-3.64,3.48a3.75,3.75,0,0,1,.3,1.5c0,1.74-1.13,3.15-2.53,3.15a2.29,2.29,0,0,1-1.73-.86l-17.67,16.88,80.94,30.25v-31.4l-15.6-16.29Zm22,33.32c-3.2,0-5.79-3.22-5.79-7.2s2.59-7.2,5.79-7.2,5.79,3.22,5.79,7.2S907,249.5,903.83,249.5Z" transform="translate(-682.98 -14.93)"/><path class="cls-6" d="M937.5,317.87V279.22l-35.41,25.41Zm-8.14-22.47c1.9,0,3.44,1.91,3.44,4.27s-1.54,4.27-3.44,4.27-3.44-1.91-3.44-4.27S927.45,295.39,929.35,295.39Z" transform="translate(-682.98 -14.93)"/><path class="cls-7" d="M853.91,242.85l-.58-.93-.32-.12a25.61,25.61,0,0,0-1.76,30.63,35,35,0,0,0-1,8.34,35.6,35.6,0,0,0,.3,4.6l48.69,18.2,38.24-27.45v-2.75l-83-31ZM923.56,276c1.9,0,3.44,1.91,3.44,4.27s-1.54,4.27-3.44,4.27-3.44-1.91-3.44-4.27S921.66,276,923.56,276Zm-48.51-4.95c2.9,0,5.25,2.92,5.25,6.52s-2.35,6.52-5.25,6.52-5.25-2.92-5.25-6.52S872.16,271.1,875.06,271.1Z" transform="translate(-682.98 -14.93)"/><path class="cls-6" d="M866.75,330.44a23.48,23.48,0,0,0,.09,19.2l32.39-7.06Z" transform="translate(-682.98 -14.93)"/><path class="cls-5" d="M851.08,288.37a28.85,28.85,0,0,0,10.05,16.69,27,27,0,0,0-.38,4.51,24.08,24.08,0,0,0,6.52,17l29.42-21.11Z" transform="translate(-682.98 -14.93)"/><polygon class="cls-7" points="236.52 205.45 216.41 184.47 200.72 199.46 236.52 205.45"/><path class="cls-8" d="M921.21,170.75a4.48,4.48,0,0,1,3.17,1.39l5.4-5.16a14,14,0,0,0-10.93-5.68,13.21,13.21,0,0,0-8.22,3l7.48,7.8A4.46,4.46,0,0,1,921.21,170.75Z" transform="translate(-682.98 -14.93)"/><polygon class="cls-8" points="254.52 220.74 254.52 210.57 242.91 208.62 254.52 220.74"/><path class="cls-6" d="M876,218a2.06,2.06,0,0,1,.38,0l2.48-2.37-24.67-4.13a29.82,29.82,0,0,0-1.72,10.06,28.64,28.64,0,0,0,4.23,15.24l16.78-16A2.81,2.81,0,0,1,876,218Z" transform="translate(-682.98 -14.93)"/><path class="cls-8" d="M897.7,197.63l-20.27-21.15c-5.08,4.93-8.49,12.39-9,20.85-5.8,1.44-10.7,6-13.49,12.24l25.75,4.31Zm-20.83-3.48c-1.9,0-3.44-1.91-3.44-4.27s1.54-4.27,3.44-4.27,3.44,1.91,3.44,4.27S878.76,194.15,876.87,194.15Z" transform="translate(-682.98 -14.93)"/><path class="cls-8" d="M868.91,328.45l35,13.1,33.54-7.31V320.67l-38-14.19Zm37.46,2.95c0,3.48-2,6.3-4.52,6.3s-4.52-2.82-4.52-6.3,2-6.3,4.52-6.3S906.37,327.91,906.37,331.39Z" transform="translate(-682.98 -14.93)"/><path class="cls-7" d="M934.06,169a3.46,3.46,0,0,0-2.37.93c-.16-.3-.33-.59-.5-.88l-5.46,5.22a7.64,7.64,0,0,1,0,5.76l11.81,12.32v-22h-.69A3.45,3.45,0,0,0,934.06,169Z" transform="translate(-682.98 -14.93)"/><path class="cls-5" d="M921.21,183.35a4.54,4.54,0,0,1-3.36-1.59l-16.71,16,22.35,23.33,14,2.35V209.45l-.1-.45h.1V195.81L924.3,182A4.45,4.45,0,0,1,921.21,183.35Z" transform="translate(-682.98 -14.93)"/><path class="cls-6" d="M916.57,179.6a7.66,7.66,0,0,1,.15-5.47l-7.87-8.21a19,19,0,0,0-3.56,5.49,5,5,0,0,0-3.84,1.44,19.63,19.63,0,0,0-9.57-2.53,20.22,20.22,0,0,0-12.64,4.58L899.45,196Z" transform="translate(-682.98 -14.93)"/><polygon class="cls-7" points="254.52 339.15 254.52 322.02 225.57 328.33 254.52 339.15"/><path class="cls-6" d="M896.05,393a18.46,18.46,0,0,0,4.54-.57l.63.08c0,.45,0,.91.08,1.39.62,9.66,3.45,13.18,6.47,14.05.17.33.35.66.53,1l12.83-10.35a7.56,7.56,0,0,1-3.18-6.48c0-4,2.51-7.2,5.61-7.2s5.61,3.22,5.61,7.19l8.33-6.72V376.6l-63.84-7.66C875.23,382.57,884.66,393,896.05,393Z" transform="translate(-682.98 -14.93)"/><path class="cls-5" d="M868.18,352.07a16.51,16.51,0,0,0,6,5.66,34.64,34.64,0,0,0-.75,7.18c0,.44,0,.88,0,1.31l64,7.69v-17l-33.67-12.59Zm16.65,9c-1.9,0-3.44-1.91-3.44-4.27s1.54-4.27,3.44-4.27,3.44,1.91,3.44,4.27S886.73,361.09,884.83,361.09Z" transform="translate(-682.98 -14.93)"/><path class="cls-5" d="M924.28,399.27,909.68,411c2.94,3.87,7.09,6.29,11.71,6.29a13.12,13.12,0,0,0,2.76-.3c6.08,2.31,13.34.3,13.34.3V388.61l-9.23,7.45A5.66,5.66,0,0,1,924.28,399.27Z" transform="translate(-682.98 -14.93)"/><path class="cls-9" d="M926.28,177.05a7.53,7.53,0,0,0-.54-2.83l5.46-5.22a18.72,18.72,0,0,0-1.41-2l-5.4,5.16a4.3,4.3,0,0,0-6.27-.07l-7.48-7.8a16.18,16.18,0,0,0-1.78,1.64l7.87,8.21a7.66,7.66,0,0,0-.15,5.47L899.45,196l-20.2-21.08q-.94.75-1.82,1.6l20.27,21.15-17,16.25-25.75-4.31-.7-.12-.22,2.06.13,0,24.67,4.13L876.34,218a2.06,2.06,0,0,0-.38,0,2.81,2.81,0,0,0-2.52,2.81l-16.78,16L854,239.37l1,.37,1.55.58,17.67-16.88a2.29,2.29,0,0,0,1.73.86c1.4,0,2.53-1.41,2.53-3.15a3.75,3.75,0,0,0-.3-1.5l3.64-3.48,40.06,6.71,15.6,16.29v-3.5l-11.61-12.12,11.61,1.95v-2.1l-14-2.35-22.35-23.33,16.71-16a4.54,4.54,0,0,0,3.36,1.59A4.45,4.45,0,0,0,924.3,182l13.19,13.77v-3.5L925.69,180A7.51,7.51,0,0,0,926.28,177.05Zm-6.78,43.33-35.79-6,15.69-15Z" transform="translate(-682.98 -14.93)"/><ellipse class="cls-9" cx="220.86" cy="227.37" rx="5.79" ry="7.2"/><ellipse class="cls-9" cx="192.08" cy="262.69" rx="5.25" ry="6.52"/><ellipse class="cls-9" cx="218.86" cy="316.46" rx="4.52" ry="6.3"/><ellipse class="cls-9" cx="246.37" cy="284.74" rx="3.44" ry="4.27"/><path class="cls-9" d="M923.56,384.94c-3.1,0-5.61,3.22-5.61,7.2a7.56,7.56,0,0,0,3.18,6.48L908.3,409a19.85,19.85,0,0,0,1.38,2.08l14.6-11.78a5.66,5.66,0,0,0,4-3.22l9.23-7.45v-3.19l-8.33,6.72C929.17,388.16,926.66,384.94,923.56,384.94Z" transform="translate(-682.98 -14.93)"/><path class="cls-9" d="M853.16,241.63l-.14.16.32.12Z" transform="translate(-682.98 -14.93)"/><polygon class="cls-9" points="171.48 227.4 254.52 258.44 254.52 255.64 173.58 225.39 171.48 227.4"/><path class="cls-9" d="M850.56,285.37q.2,1.53.53,3l45.61,17-29.42,21.11-1.2.86,1.92.72.91.34,30.62-22,38,14.19v-2.8l-35.41-13.24,35.41-25.41v-3.09l-38.24,27.45Z" transform="translate(-682.98 -14.93)"/><path class="cls-9" d="M868.91,328.45l-1.84,1.32-.73.52.41.15,32.48,12.14-32.39,7.06a20.11,20.11,0,0,0,1.34,2.43l35.65-7.77,33.67,12.59v-2.8l-28.95-10.82L937.5,337v-2.72L904,341.55Z" transform="translate(-682.98 -14.93)"/><path class="cls-9" d="M873.66,368.94l63.84,7.66v-2.69l-64-7.69C873.49,367.14,873.56,368,873.66,368.94Z" transform="translate(-682.98 -14.93)"/><polygon class="cls-9" points="171.48 227.4 170.36 226.98 170.94 227.92 171.48 227.4"/><polygon class="cls-9" points="182.59 315.91 183.37 315.35 182.12 314.89 182.59 315.91"/><ellipse class="cls-9" cx="201.85" cy="341.88" rx="3.44" ry="4.27"/><ellipse class="cls-9" cx="193.89" cy="174.95" rx="3.44" ry="4.27"/><path class="cls-10" d="M1010.9,223.89a2.29,2.29,0,0,1-1.73.86c-1.4,0-2.53-1.41-2.53-3.15a3.75,3.75,0,0,1,.3-1.5l-3.64-3.48-40.06,6.71-15.6,16.29V271l80.94-30.25ZM981.3,249.95c-3.2,0-5.79-3.22-5.79-7.2s2.59-7.2,5.79-7.2,5.79,3.22,5.79,7.2S984.5,249.95,981.3,249.95Z" transform="translate(-682.98 -14.93)"/><path class="cls-11" d="M947.63,279.67v38.65L983,305.08Zm8.14,24.73c-1.9,0-3.44-1.91-3.44-4.27s1.54-4.27,3.44-4.27,3.44,1.91,3.44,4.27S957.68,304.39,955.78,304.39Z" transform="translate(-682.98 -14.93)"/><path class="cls-12" d="M1038.13,258.72a25.23,25.23,0,0,0-6-16.48l-.32.12-.58.93-.54-.52-83,31v2.75L985.88,304l48.69-18.2a35.6,35.6,0,0,0,.3-4.6,35,35,0,0,0-1-8.34A25.39,25.39,0,0,0,1038.13,258.72ZM961.57,285c-1.9,0-3.44-1.91-3.44-4.27s1.54-4.27,3.44-4.27,3.44,1.91,3.44,4.27S963.47,285,961.57,285Zm48.51-.45c-2.9,0-5.25-2.92-5.25-6.52s2.35-6.52,5.25-6.52,5.25,2.92,5.25,6.52S1013,284.6,1010.07,284.6Z" transform="translate(-682.98 -14.93)"/><path class="cls-11" d="M1018.29,350.09a23.48,23.48,0,0,0,.09-19.2L985.9,343Z" transform="translate(-682.98 -14.93)"/><path class="cls-10" d="M1017.85,327a24.08,24.08,0,0,0,6.52-17,27,27,0,0,0-.38-4.51A28.85,28.85,0,0,0,1034,288.82l-45.61,17Z" transform="translate(-682.98 -14.93)"/><polygon class="cls-12" points="302.76 184.92 282.66 205.9 318.45 199.91 302.76 184.92"/><path class="cls-13" d="M963.92,171.2a4.46,4.46,0,0,1,3.1,1.32l7.48-7.8a13.21,13.21,0,0,0-8.22-3,14,14,0,0,0-10.93,5.68l5.4,5.16A4.48,4.48,0,0,1,963.92,171.2Z" transform="translate(-682.98 -14.93)"/><polygon class="cls-13" points="264.65 211.02 264.65 221.19 276.27 209.07 264.65 211.02"/><path class="cls-11" d="M1008.79,218.49a2.06,2.06,0,0,1,.38,0,2.81,2.81,0,0,1,2.52,2.81l16.78,16A28.64,28.64,0,0,0,1032.7,222,29.82,29.82,0,0,0,1031,212l-24.67,4.13Z" transform="translate(-682.98 -14.93)"/><path class="cls-13" d="M1004.44,214.33l25.75-4.31c-2.79-6.23-7.69-10.8-13.49-12.24-.51-8.47-3.92-15.92-9-20.85l-20.27,21.15Zm3.83-28.28c1.9,0,3.44,1.91,3.44,4.27s-1.54,4.27-3.44,4.27-3.44-1.91-3.44-4.27S1006.36,186.05,1008.26,186.05Z" transform="translate(-682.98 -14.93)"/><path class="cls-13" d="M947.63,321.12v13.57L981.17,342l35-13.1-30.62-22Zm40.18,10.73c0,3.48-2,6.3-4.52,6.3s-4.52-2.82-4.52-6.3,2-6.3,4.52-6.3S987.81,328.36,987.81,331.84Z" transform="translate(-682.98 -14.93)"/><path class="cls-12" d="M958.85,177.5a7.53,7.53,0,0,1,.54-2.83l-5.46-5.22c-.17.29-.34.58-.5.88a3.47,3.47,0,0,0-5.12.42h-.69v22l11.81-12.32A7.51,7.51,0,0,1,958.85,177.5Z" transform="translate(-682.98 -14.93)"/><path class="cls-10" d="M984,198.18l-16.71-16a4.54,4.54,0,0,1-3.36,1.59,4.45,4.45,0,0,1-3.09-1.32l-13.19,13.77v13.19h.1l-.1.45v13.95l14-2.35Z" transform="translate(-682.98 -14.93)"/><path class="cls-11" d="M969,177.5a7.59,7.59,0,0,1-.43,2.55l17.13,16.36,20.2-21.08a20.22,20.22,0,0,0-12.64-4.58,19.63,19.63,0,0,0-9.57,2.53,5,5,0,0,0-3.84-1.44,19,19,0,0,0-3.56-5.49l-7.87,8.21A7.51,7.51,0,0,1,969,177.5Z" transform="translate(-682.98 -14.93)"/><polygon class="cls-12" points="264.65 322.47 264.65 339.6 293.6 328.78 264.65 322.47"/><path class="cls-11" d="M947.63,385.86l8.33,6.72c0-4,2.51-7.19,5.61-7.19s5.61,3.22,5.61,7.2a7.56,7.56,0,0,1-3.18,6.48l12.83,10.35c.19-.32.36-.65.53-1,3-.87,5.84-4.39,6.47-14.05,0-.48.06-.94.08-1.39l.63-.08a18.46,18.46,0,0,0,4.54.57c11.39,0,20.82-10.47,22.39-24.09l-63.84,7.66Z" transform="translate(-682.98 -14.93)"/><path class="cls-10" d="M947.63,357.33v17l64-7.69c0-.44,0-.87,0-1.31a34.64,34.64,0,0,0-.75-7.18,16.51,16.51,0,0,0,6-5.66l-35.65-7.77ZM1000.3,353c1.9,0,3.44,1.91,3.44,4.27s-1.54,4.27-3.44,4.27-3.44-1.91-3.44-4.27S998.4,353,1000.3,353Z" transform="translate(-682.98 -14.93)"/><path class="cls-10" d="M956.86,396.5l-9.23-7.45v28.73s7.26,2,13.34-.3a13.12,13.12,0,0,0,2.76.3c4.62,0,8.77-2.42,11.71-6.29l-14.6-11.78A5.66,5.66,0,0,1,956.86,396.5Z" transform="translate(-682.98 -14.93)"/><ellipse class="cls-9" cx="298.32" cy="227.82" rx="5.79" ry="7.2"/><ellipse class="cls-9" cx="327.1" cy="263.14" rx="5.25" ry="6.52"/><ellipse class="cls-9" cx="300.31" cy="316.91" rx="4.52" ry="6.3"/><ellipse class="cls-9" cx="272.8" cy="285.19" rx="3.44" ry="4.27"/><path class="cls-9" d="M967.18,392.59c0-4-2.51-7.2-5.61-7.2s-5.61,3.22-5.61,7.19l-8.33-6.72v3.19l9.23,7.45a5.66,5.66,0,0,0,4,3.22l14.6,11.78a19.85,19.85,0,0,0,1.38-2.08L964,399.07A7.56,7.56,0,0,0,967.18,392.59Z" transform="translate(-682.98 -14.93)"/><path class="cls-9" d="M1003.3,216.62l3.64,3.48a3.75,3.75,0,0,0-.3,1.5c0,1.74,1.13,3.15,2.53,3.15a2.29,2.29,0,0,0,1.73-.86l17.67,16.88,1.55-.58,1-.37-2.65-2.53-16.78-16a2.81,2.81,0,0,0-2.52-2.81,2.06,2.06,0,0,0-.38,0l-2.48-2.37L1031,212l.13,0-.22-2.06-.7.12-25.75,4.31-17-16.25,20.27-21.15q-.88-.85-1.82-1.6l-20.2,21.08L968.55,180a7.66,7.66,0,0,0-.15-5.47l7.87-8.21a16.18,16.18,0,0,0-1.78-1.64l-7.48,7.8a4.3,4.3,0,0,0-6.27.07l-5.4-5.16a18.72,18.72,0,0,0-1.41,2l5.46,5.22a7.64,7.64,0,0,0,0,5.76l-11.81,12.32v3.5l13.19-13.77a4.45,4.45,0,0,0,3.09,1.32,4.54,4.54,0,0,0,3.36-1.59l16.71,16L961.64,221.5l-14,2.35V226L959.25,224l-11.61,12.12v3.5l15.6-16.29Zm-17.56-16.78,15.69,15-35.79,6Z" transform="translate(-682.98 -14.93)"/><path class="cls-9" d="M1032,242.08l-.17.28.32-.12Z" transform="translate(-682.98 -14.93)"/><polygon class="cls-9" points="345.59 225.84 264.65 256.09 264.65 258.89 347.7 227.85 345.59 225.84"/><path class="cls-9" d="M947.63,334.68v2.72l28.95,6.31-28.95,10.82v2.8l33.67-12.59,35.65,7.77a20.11,20.11,0,0,0,1.34-2.43L985.9,343l32.48-12.14.41-.15-.73-.52-1.84-1.32-35,13.1Z" transform="translate(-682.98 -14.93)"/><path class="cls-9" d="M947.63,377.05l63.84-7.66c.1-.89.17-1.8.21-2.72l-64,7.69Z" transform="translate(-682.98 -14.93)"/><polygon class="cls-9" points="348.82 227.43 347.7 227.85 348.24 228.37 348.82 227.43"/><polygon class="cls-9" points="337.06 315.34 335.81 315.8 336.58 316.36 337.06 315.34"/><path class="cls-9" d="M947.63,276.58v3.09L983,305.08l-35.41,13.24v2.8l38-14.19,30.62,22,.91-.34,1.92-.72-1.2-.86-29.42-21.11,45.61-17q.32-1.47.53-3L985.88,304Z" transform="translate(-682.98 -14.93)"/><ellipse class="cls-9" cx="317.32" cy="342.33" rx="3.44" ry="4.27"/><ellipse class="cls-9" cx="325.29" cy="175.39" rx="3.44" ry="4.27"/></svg>