<svg id="Layer_1" data-name="Layer 1" xmlns="http://www.w3.org/2000/svg" viewBox="0 0 1264.5 743.06"><defs><style>.cls-1,.cls-2{stroke:#000;}.cls-1,.cls-2,.cls-3{stroke-miterlimit:10;}.cls-2{fill:none;stroke-linecap:round;stroke-width:20px;}.cls-3{stroke:#ffeb3b;stroke-width:10px;}.cls-4{fill:#95ca5b;}.cls-5{fill:#fff;}</style></defs><title>quizCreationInProgress</title><path class="cls-1" d="M1014.94,120.76C914.74,115.3,830.74,198,834.63,298.25a170.24,170.24,0,0,0,40.49,103.89,99.64,99.64,0,0,1,23.38,64.57v42.15a34.64,34.64,0,0,0,34.64,34.64h144.72a34.64,34.64,0,0,0,34.64-34.64V466.7a101.41,101.41,0,0,1,23.94-65.24,171,171,0,0,0-121.5-280.71Z" transform="translate(-21 -11.44)"/><line class="cls-2" x1="1065" y1="566.55" x2="902" y2="565.55"/><line class="cls-2" x1="1065" y1="600.56" x2="902" y2="599.56"/><line class="cls-2" x1="1065" y1="634.56" x2="902" y2="633.56"/><path class="cls-2" d="M646.5,62" transform="translate(-21 -11.44)"/><path d="M1056.4,679a19.26,19.26,0,0,1,18,26,75.53,75.53,0,0,1-142-.51C928,692,937.4,679,950.59,679Z" transform="translate(-21 -11.44)"/><line class="cls-3" x1="983.5" y1="0.06" x2="984.5" y2="88.06"/><line class="cls-3" x1="782.39" y1="78.44" x2="844.61" y2="140.67"/><line class="cls-3" x1="1186.61" y1="78.44" x2="1124.39" y2="140.67"/><line class="cls-3" x1="704.5" y1="259.56" x2="792.5" y2="259.56"/><line class="cls-3" x1="1176.5" y1="259.56" x2="1264.5" y2="259.56"/><path class="cls-4" d="M117.22,163.94l-10.06,7.73a7,7,0,0,1-11,8.42L47.4,217.61,271,284.84V215.06l-43.11-36.2ZM178,238a16,16,0,1,1,16-16A16,16,0,0,1,178,238Z" transform="translate(-21 -11.44)"/><polygon class="cls-4" points="250 378.5 250 292.61 152.17 349.09 250 378.5"/><path class="cls-4" d="M271,297.18v-6.12l-229.41-69-1.49,1.15-1.6-2.08-.87-.26C27.3,230.56,21,243.4,21,257.5A49,49,0,0,0,32.76,289a63.79,63.79,0,0,0-1.93,28.77l134.52,40.45ZM232.5,297a9.5,9.5,0,1,1-9.5,9.5A9.5,9.5,0,0,1,232.5,297Zm-134,18A14.5,14.5,0,1,1,113,300.5,14.5,14.5,0,0,1,98.5,315Z" transform="translate(-21 -11.44)"/><path class="cls-4" d="M75.55,417.88a43,43,0,0,0,.24,42.68l89.49-15.7Z" transform="translate(-21 -11.44)"/><path class="cls-4" d="M32.28,324.38A63.63,63.63,0,0,0,60,361.47a48.48,48.48,0,0,0,17,47.71l81.26-46.92Z" transform="translate(-21 -11.44)"/><polygon class="cls-4" points="144.72 115.22 101.39 148.53 200.27 161.85 144.72 115.22"/><path class="cls-4" d="M226,63a13.93,13.93,0,0,1,8.76,3.09l14.93-11.47a42.42,42.42,0,0,0-52.9-6l20.65,17.34A13.92,13.92,0,0,1,226,63Z" transform="translate(-21 -11.44)"/><polygon class="cls-4" points="250 195.84 250 173.23 217.92 168.9 250 195.84"/><path class="cls-4" d="M101,168a7,7,0,0,1,1.06.09l6.85-5.27-68.16-9.19a55,55,0,0,0,6.94,56.24L94,174.25A7,7,0,0,1,101,168Z" transform="translate(-21 -11.44)"/><path class="cls-4" d="M161.05,122.74l-56-47a64.92,64.92,0,0,0-24.86,46.34,55.07,55.07,0,0,0-37.27,27.2l71.14,9.59ZM103.5,115a9.5,9.5,0,1,1,9.5-9.5A9.5,9.5,0,0,1,103.5,115Z" transform="translate(-21 -11.44)"/><path class="cls-4" d="M81.51,413.45l96.83,29.11L271,426.32V396.16L166.1,364.62ZM185,420c0,7.73-5.6,14-12.5,14S160,427.73,160,420s5.6-14,12.5-14S185,412.27,185,420Z" transform="translate(-21 -11.44)"/><path class="cls-4" d="M240,77a13.93,13.93,0,0,1-1.62,6.52L271,110.9V62h-1.91a10.49,10.49,0,0,0-7.59-3A10.92,10.92,0,0,0,255,61.07c-.44-.66-.9-1.31-1.37-1.95L238.5,70.72A13.92,13.92,0,0,1,240,77Z" transform="translate(-21 -11.44)"/><path class="cls-4" d="M226,91a13.93,13.93,0,0,1-9.28-3.54l-46.16,35.48,61.74,51.84L271,180V149l-.28-1H271V118.68L234.55,88.07A13.92,13.92,0,0,1,226,91Z" transform="translate(-21 -11.44)"/><path class="cls-4" d="M213.2,82.66a13.95,13.95,0,0,1,.41-12.17L191.87,52.24A42.67,42.67,0,0,0,182,64.43a16,16,0,0,0-10.6,3.19,65,65,0,0,0-61.35,4.55L165.89,119Z" transform="translate(-21 -11.44)"/><polygon class="cls-4" points="250 458.99 250 420.92 170.03 434.94 250 458.99"/><path class="cls-4" d="M217,555a15.51,15.51,0,1,1,31,0l23-14.93V520.48l-176.35-17A62.55,62.55,0,0,0,169,555.74q.86.11,1.74.17c.07,1,.14,2,.22,3.09,1.72,21.47,9.52,29.29,17.86,31.23.47.74,1,1.47,1.47,2.18l35.45-23A16,16,0,0,1,217,555Z" transform="translate(-21 -11.44)"/><path class="cls-4" d="M271,476.64l-93-28L79.5,465.95a43.14,43.14,0,0,0,16.57,12.59,62.57,62.57,0,0,0-2.07,16c0,1,0,1.95.07,2.92L271,514.5ZM125.5,486a9.5,9.5,0,1,1,9.5-9.5A9.5,9.5,0,0,1,125.5,486Z" transform="translate(-21 -11.44)"/><path class="cls-4" d="M234.48,570.86,194.15,597a44.38,44.38,0,0,0,40,13.3c16.8,5.12,36.86.67,36.86.67V547.15l-25.51,16.55A15.44,15.44,0,0,1,234.48,570.86Z" transform="translate(-21 -11.44)"/><path class="cls-5" d="M234.76,66.09a14,14,0,0,0-17.32-.15l8.37,7Z" transform="translate(-21 -11.44)"/><path class="cls-5" d="M216.72,87.46a13.94,13.94,0,0,0,17.83.61l-8.9-7.47Z" transform="translate(-21 -11.44)"/><path class="cls-5" d="M213.61,70.49a13.95,13.95,0,0,0-.41,12.17l7.78-6Z" transform="translate(-21 -11.44)"/><path class="cls-5" d="M238.38,83.52a13.93,13.93,0,0,0,.11-12.8l-8,6.16Z" transform="translate(-21 -11.44)"/><path class="cls-5" d="M101,168a7,7,0,0,0-7,6.25l8-6.16A7,7,0,0,0,101,168Z" transform="translate(-21 -11.44)"/><path class="cls-5" d="M108,175a7,7,0,0,0-.84-3.33l-11,8.42A7,7,0,0,0,108,175Z" transform="translate(-21 -11.44)"/><circle class="cls-5" cx="157" cy="210.56" r="16"/><circle class="cls-5" cx="77.5" cy="289.06" r="14.5"/><ellipse class="cls-5" cx="151.5" cy="408.56" rx="12.5" ry="14"/><circle class="cls-5" cx="227.5" cy="338.06" r="9.5"/><path class="cls-5" d="M245.49,563.71l-11,7.15A15.44,15.44,0,0,0,245.49,563.71Z" transform="translate(-21 -11.44)"/><path class="cls-5" d="M232.5,539A15.76,15.76,0,0,0,217,555a16,16,0,0,0,8.78,14.4L248,555A15.75,15.75,0,0,0,232.5,539Z" transform="translate(-21 -11.44)"/><path class="cls-5" d="M217.44,65.94,196.79,48.59a42.62,42.62,0,0,0-4.92,3.64l21.74,18.25A14,14,0,0,1,217.44,65.94Z" transform="translate(-21 -11.44)"/><path class="cls-5" d="M234.55,88.07,271,118.68V110.9L238.38,83.52A14,14,0,0,1,234.55,88.07Z" transform="translate(-21 -11.44)"/><path class="cls-5" d="M225.65,80.6l8.9,7.47a14,14,0,0,0,3.84-4.55l-7.9-6.64Z" transform="translate(-21 -11.44)"/><path class="cls-5" d="M225.81,73l-8.37-7a14,14,0,0,0-3.83,4.55L221,76.68Z" transform="translate(-21 -11.44)"/><polygon class="cls-5" points="206.89 167.42 250 203.61 250 195.84 217.92 168.9 206.89 167.42"/><path class="cls-5" d="M165.89,119l-55.8-46.85q-2.6,1.66-5,3.56l56,47Z" transform="translate(-21 -11.44)"/><polygon class="cls-5" points="200.27 161.85 211.29 163.34 149.55 111.5 144.72 115.22 200.27 161.85"/><path class="cls-5" d="M41,149l-.62,4.59.37,0q1-2.24,2.19-4.37Z" transform="translate(-21 -11.44)"/><polygon class="cls-5" points="217.92 168.9 250 173.23 250 168.56 211.29 163.34 217.92 168.9"/><path class="cls-5" d="M114.08,158.85l-71.14-9.59q-1.19,2.13-2.19,4.37l68.16,9.19Z" transform="translate(-21 -11.44)"/><polygon class="cls-5" points="101.39 148.53 96.22 152.5 206.89 167.42 200.27 161.85 101.39 148.53"/><polygon class="cls-5" points="206.89 167.42 217.92 168.9 211.29 163.34 200.27 161.85 206.89 167.42"/><path class="cls-5" d="M38,220.52l-.39.37.87.26Z" transform="translate(-21 -11.44)"/><polygon class="cls-5" points="20.59 210.63 250 279.61 250 273.4 26.4 206.16 20.59 210.63"/><path class="cls-5" d="M165.35,358.18,30.82,317.73a63.07,63.07,0,0,0,1.45,6.65l126,37.88Z" transform="translate(-21 -11.44)"/><polygon class="cls-5" points="145.09 353.18 250 384.72 250 378.5 152.17 349.09 145.09 353.18"/><path class="cls-5" d="M74.43,417.54l1.12.34q.43-.76.89-1.49Z" transform="translate(-21 -11.44)"/><path class="cls-5" d="M178.34,442.57,81.51,413.45l-5.07,2.93q-.46.74-.89,1.49l89.73,27Z" transform="translate(-21 -11.44)"/><polygon class="cls-5" points="156.98 437.23 250 465.2 250 458.99 170.03 434.94 156.98 437.23"/><polygon class="cls-5" points="170.03 434.94 250 420.92 250 414.87 157.34 431.12 170.03 434.94"/><path class="cls-5" d="M165.28,444.86l-89.49,15.7a43.08,43.08,0,0,0,3.71,5.39L178,448.67Z" transform="translate(-21 -11.44)"/><polygon class="cls-5" points="157.34 431.12 144.28 433.41 156.98 437.23 170.03 434.94 157.34 431.12"/><path class="cls-5" d="M232.5,571a15,15,0,0,1-6.72-1.6l-35.45,23a44.75,44.75,0,0,0,3.82,4.62l40.33-26.17A15.09,15.09,0,0,1,232.5,571Z" transform="translate(-21 -11.44)"/><path class="cls-5" d="M248,555v0a16.28,16.28,0,0,1-2.51,8.71L271,547.15v-7.1Z" transform="translate(-21 -11.44)"/><path class="cls-5" d="M232.5,571a15.09,15.09,0,0,0,2-.14l11-7.15A16.28,16.28,0,0,0,248,555v0L225.78,569.4A15,15,0,0,0,232.5,571Z" transform="translate(-21 -11.44)"/><path class="cls-5" d="M271,514.5,94.07,497.42c.09,2,.29,4.05.57,6l176.35,17Z" transform="translate(-21 -11.44)"/><path class="cls-5" d="M48.2,212.92c.27-.45.57-.9.87-1.36q-.71-.83-1.37-1.69l-7.31,5.62,2.73.82Q45.55,214.52,48.2,212.92Z" transform="translate(-21 -11.44)"/><polygon class="cls-5" points="144.72 115.22 140.05 111.3 93.08 147.41 101.39 148.53 144.72 115.22"/><path class="cls-5" d="M48.2,212.92q-2.65,1.59-5.08,3.39l4.29,1.29,48.81-37.52A7,7,0,0,1,94,175a7.07,7.07,0,0,1,0-.75L47.69,209.88q.67.86,1.37,1.69C48.77,212,48.47,212.48,48.2,212.92Z" transform="translate(-21 -11.44)"/><path class="cls-5" d="M107.16,171.67l10.06-7.73-8.31-1.12-6.85,5.27A7,7,0,0,1,107.16,171.67Z" transform="translate(-21 -11.44)"/><path class="cls-5" d="M238.5,70.72l15.08-11.59a42.76,42.76,0,0,0-3.89-4.51L234.76,66.09A14,14,0,0,1,238.5,70.72Z" transform="translate(-21 -11.44)"/><polygon class="cls-5" points="19.09 211.78 20.59 210.63 17.5 209.7 19.09 211.78"/><path class="cls-5" d="M216.72,87.46a14,14,0,0,1-3.52-4.8L165.89,119l4.67,3.92Z" transform="translate(-21 -11.44)"/><path class="cls-5" d="M230.48,76.88l8-6.16a14,14,0,0,0-3.74-4.63L225.81,73Z" transform="translate(-21 -11.44)"/><path class="cls-5" d="M216.72,87.46l8.93-6.86L221,76.68l-7.78,6A14,14,0,0,0,216.72,87.46Z" transform="translate(-21 -11.44)"/><path class="cls-5" d="M102.06,168.09l-8,6.16a7.07,7.07,0,0,0,0,.75,7,7,0,0,0,2.21,5.09l11-8.42A7,7,0,0,0,102.06,168.09Z" transform="translate(-21 -11.44)"/><polygon class="cls-5" points="204.81 61.52 199.98 65.23 204.65 69.15 209.48 65.44 204.81 61.52"/><polygon class="cls-5" points="149.55 111.5 144.89 107.58 140.05 111.3 144.72 115.22 149.55 111.5"/><polygon class="cls-5" points="101.39 148.53 93.08 147.41 87.91 151.38 96.22 152.5 101.39 148.53"/><polygon class="cls-5" points="51.29 407.33 53.43 406.1 49.98 405.06 51.29 407.33"/><path class="cls-5" d="M80,411.44c-1-.71-2-1.47-3-2.26l-3.32,1.92L79,412.7C79.32,412.27,79.65,411.85,80,411.44Z" transform="translate(-21 -11.44)"/><polygon class="cls-5" points="144.35 346.73 152.17 349.09 250 292.61 250 285.74 144.35 346.73"/><path class="cls-5" d="M79,412.7l2.52.76,84.58-48.83-7.83-2.35L77,409.18c1,.79,2,1.55,3,2.26C79.65,411.85,79.32,412.27,79,412.7Z" transform="translate(-21 -11.44)"/><polygon class="cls-5" points="144.35 346.73 137.27 350.82 145.09 353.18 152.17 349.09 144.35 346.73"/><circle class="cls-5" cx="104.5" cy="465.06" r="9.5"/><circle class="cls-5" cx="82.5" cy="94.06" r="9.5"/></svg>