<svg id="Layer_1" data-name="Layer 1" xmlns="http://www.w3.org/2000/svg" viewBox="0 0 516 504.5"><defs><style>.cls-1{fill:#fff;}.cls-2,.cls-3{fill:none;stroke:#000;stroke-linejoin:round;}.cls-2{stroke-width:20px;}.cls-3{stroke-width:7px;}</style></defs><title>sadCalenderInProgress</title><rect class="cls-1" x="14" y="62.5" width="488" height="428" rx="47.17" ry="47.17"/><path d="M880.05,157a33.17,33.17,0,0,1,33.17,33.17V523.83A33.17,33.17,0,0,1,880.05,557H486.39a33.17,33.17,0,0,1-33.17-33.17V190.17A33.17,33.17,0,0,1,486.39,157H880.05m0-28H486.39a61.24,61.24,0,0,0-61.17,61.17V523.83A61.24,61.24,0,0,0,486.39,585H880.05a61.24,61.24,0,0,0,61.17-61.17V190.17A61.24,61.24,0,0,0,880.05,129Z" transform="translate(-425.22 -80.5)"/><line class="cls-2" x1="28" y1="127.5" x2="488" y2="127.5"/><circle class="cls-3" cx="257.58" cy="13.75" r="10.25"/><line class="cls-3" x1="251" y1="21" x2="219" y2="53"/><line class="cls-3" x1="265" y1="21" x2="297" y2="53"/></svg>