<svg id="Layer_1" data-name="Layer 1" xmlns="http://www.w3.org/2000/svg" viewBox="0 0 516 478.5"><defs><style>.cls-1,.cls-6{fill:#fff;}.cls-2{fill:#c22536;}.cls-3,.cls-4{fill:none;}.cls-3,.cls-4,.cls-6{stroke:#000;stroke-linejoin:round;}.cls-3{stroke-width:20px;}.cls-4{stroke-width:7px;}.cls-5{fill:#5890ff;}.cls-6{stroke-linecap:round;stroke-width:11px;}.cls-7{opacity:0.1;}.cls-8{font-size:67px;font-family:Georgia, Georgia;}</style></defs><title>sadCalenderOptionOne</title><rect class="cls-1" x="14" y="62.5" width="488" height="402" rx="47.17" ry="47.17"/><path d="M480.83,154A33.17,33.17,0,0,1,514,187.17V494.83A33.17,33.17,0,0,1,480.83,528H87.17A33.17,33.17,0,0,1,54,494.83V187.17A33.17,33.17,0,0,1,87.17,154H480.83m0-28H87.17A61.24,61.24,0,0,0,26,187.17V494.83A61.24,61.24,0,0,0,87.17,556H480.83A61.24,61.24,0,0,0,542,494.83V187.17A61.24,61.24,0,0,0,480.83,126Z" transform="translate(-26 -77.5)"/><rect class="cls-2" x="27.5" y="76" width="462" height="60" rx="8.57" ry="8.57"/><path d="M506.93,154a8.07,8.07,0,0,1,8.07,8.07v42.86a8.07,8.07,0,0,1-8.07,8.07H62.07A8.07,8.07,0,0,1,54,204.93V162.07A8.07,8.07,0,0,1,62.07,154H506.93m0-1H62.07A9.08,9.08,0,0,0,53,162.07v42.86A9.08,9.08,0,0,0,62.07,214H506.93a9.08,9.08,0,0,0,9.07-9.07V162.07a9.08,9.08,0,0,0-9.07-9.07Z" transform="translate(-26 -77.5)"/><line class="cls-3" x1="28.22" y1="144.5" x2="488.22" y2="144.5"/><circle class="cls-4" cx="257.81" cy="13.75" r="10.25"/><line class="cls-4" x1="251.22" y1="21" x2="219.22" y2="53"/><line class="cls-4" x1="265.22" y1="21" x2="297.22" y2="53"/><circle cx="170.5" cy="214" r="27.5"/><circle class="cls-1" cx="162.5" cy="210" r="8.5"/><circle cx="308.5" cy="214" r="27.5"/><circle class="cls-1" cx="300.5" cy="210" r="8.5"/><path class="cls-5" d="M408.67,368a19.54,19.54,0,0,1-38.09,8.71c-2.39-10.47,7.78-55.08,7.78-55.08S406.27,357.57,408.67,368Z" transform="translate(-26 -77.5)"/><path class="cls-5" d="M160.87,376.42c-2.4,11.33-14.42,18.38-26.85,15.75s-20.55-14-18.15-25.28,34.48-50,34.48-50S163.27,365.09,160.87,376.42Z" transform="translate(-26 -77.5)"/><path class="cls-6" d="M208,411.5c0-21.26,29.33-38.5,65.5-38.5S339,390.24,339,411.5" transform="translate(-26 -77.5)"/><rect class="cls-7" x="49.5" y="326" width="37" height="37"/><rect class="cls-7" x="113" y="326.5" width="37" height="37"/><rect class="cls-7" x="176.5" y="327" width="37" height="37"/><rect class="cls-7" x="240" y="327.5" width="37" height="37"/><rect class="cls-7" x="303.5" y="328" width="37" height="37"/><rect class="cls-7" x="367" y="328.5" width="37" height="37"/><rect class="cls-7" x="430.5" y="329" width="37" height="37"/><rect class="cls-7" x="49.5" y="390" width="37" height="37"/><rect class="cls-7" x="113" y="390.5" width="37" height="37"/><rect class="cls-7" x="176.5" y="391" width="37" height="37"/><rect class="cls-7" x="240" y="391.5" width="37" height="37"/><rect class="cls-7" x="303.5" y="392" width="37" height="37"/><rect class="cls-7" x="367" y="392.5" width="37" height="37"/><rect class="cls-7" x="430.5" y="393" width="37" height="37"/><rect class="cls-7" x="49.5" y="264" width="37" height="37"/><rect class="cls-7" x="113" y="264.5" width="37" height="37"/><rect class="cls-7" x="176.5" y="265" width="37" height="37"/><rect class="cls-7" x="240" y="265.5" width="37" height="37"/><rect class="cls-7" x="303.5" y="266" width="37" height="37"/><rect class="cls-7" x="367" y="266.5" width="37" height="37"/><rect class="cls-7" x="430.5" y="267" width="37" height="37"/><rect class="cls-7" x="49.5" y="202" width="37" height="37"/><rect class="cls-7" x="113" y="202.5" width="37" height="37"/><rect class="cls-7" x="176.5" y="203" width="37" height="37"/><rect class="cls-7" x="240" y="203.5" width="37" height="37"/><rect class="cls-7" x="303.5" y="204" width="37" height="37"/><rect class="cls-7" x="367" y="204.5" width="37" height="37"/><rect class="cls-7" x="430.5" y="205" width="37" height="37"/><rect class="cls-7" x="49.5" y="140" width="37" height="37"/><rect class="cls-7" x="113" y="140.5" width="37" height="37"/><rect class="cls-7" x="176.5" y="141" width="37" height="37"/><rect class="cls-7" x="240" y="141.5" width="37" height="37"/><rect class="cls-7" x="303.5" y="142" width="37" height="37"/><rect class="cls-7" x="367" y="142.5" width="37" height="37"/><rect class="cls-7" x="430.5" y="143" width="37" height="37"/><path class="cls-5" d="M432.27,318.24a19.54,19.54,0,0,1-32.51,21.67c-6-8.94-12.3-54.25-12.3-54.25S426.32,309.3,432.27,318.24Z" transform="translate(-26 -77.5)"/><text class="cls-8" transform="translate(100.06 131.39)">JANUARY</text></svg>