<svg id="Layer_1" data-name="Layer 1" xmlns="http://www.w3.org/2000/svg" viewBox="0 0 516 478.5"><defs><style>.cls-1{fill:#fff;}.cls-2{fill:#c22536;}.cls-3,.cls-4{fill:none;stroke:#000;stroke-linejoin:round;}.cls-3{stroke-width:20px;}.cls-4{stroke-width:7px;}.cls-5{fill:#ed1c24;}</style></defs><title>sadCalenderOptionTwo</title><rect class="cls-1" x="14" y="62.5" width="488" height="402" rx="47.17" ry="47.17"/><path d="M1163.83,137A33.17,33.17,0,0,1,1197,170.17V477.83A33.17,33.17,0,0,1,1163.83,511H770.17A33.17,33.17,0,0,1,737,477.83V170.17A33.17,33.17,0,0,1,770.17,137h393.66m0-28H770.17A61.24,61.24,0,0,0,709,170.17V477.83A61.24,61.24,0,0,0,770.17,539h393.66A61.24,61.24,0,0,0,1225,477.83V170.17A61.24,61.24,0,0,0,1163.83,109Z" transform="translate(-709 -60.5)"/><rect class="cls-2" x="27.5" y="76" width="462" height="60" rx="8.57" ry="8.57"/><path d="M1189.93,137a8.07,8.07,0,0,1,8.07,8.07v42.86a8.07,8.07,0,0,1-8.07,8.07H745.07a8.07,8.07,0,0,1-8.07-8.07V145.07a8.07,8.07,0,0,1,8.07-8.07h444.86m0-1H745.07a9.08,9.08,0,0,0-9.07,9.07v42.86a9.08,9.08,0,0,0,9.07,9.07h444.86a9.08,9.08,0,0,0,9.07-9.07V145.07a9.08,9.08,0,0,0-9.07-9.07Z" transform="translate(-709 -60.5)"/><line class="cls-3" x1="28.22" y1="144.5" x2="488.22" y2="144.5"/><circle class="cls-4" cx="257.81" cy="13.75" r="10.25"/><line class="cls-4" x1="251.22" y1="21" x2="219.22" y2="53"/><line class="cls-4" x1="265.22" y1="21" x2="297.22" y2="53"/><rect x="48.5" y="185" width="37" height="37"/><rect x="112" y="185.5" width="37" height="37"/><rect x="175.5" y="186" width="37" height="37"/><rect x="239" y="186.5" width="37" height="37"/><rect x="302.5" y="187" width="37" height="37"/><rect x="366" y="187.5" width="37" height="37"/><rect x="429.5" y="188" width="37" height="37"/><rect x="48.5" y="249" width="37" height="37"/><rect x="112" y="249.5" width="37" height="37"/><rect class="cls-5" x="175.5" y="250" width="37" height="37"/><rect class="cls-5" x="239" y="250.5" width="37" height="37"/><rect class="cls-5" x="302.5" y="251" width="37" height="37"/><rect x="366" y="251.5" width="37" height="37"/><rect x="429.5" y="252" width="37" height="37"/><rect x="48.5" y="313" width="37" height="37"/><rect class="cls-5" x="112" y="313.5" width="37" height="37"/><rect x="175.5" y="314" width="37" height="37"/><rect x="239" y="314.5" width="37" height="37"/><rect x="302.5" y="315" width="37" height="37"/><rect class="cls-5" x="366" y="315.5" width="37" height="37"/><rect x="429.5" y="316" width="37" height="37"/><rect class="cls-5" x="48.5" y="377" width="37" height="37"/><rect x="112" y="377.5" width="37" height="37"/><rect x="175.5" y="378" width="37" height="37"/><rect x="239" y="378.5" width="37" height="37"/><rect x="302.5" y="379" width="37" height="37"/><rect x="366" y="379.5" width="37" height="37"/><rect class="cls-5" x="429.5" y="380" width="37" height="37"/><circle class="cls-1" cx="194" cy="106.5" r="25"/><circle class="cls-1" cx="321" cy="106.5" r="25"/><circle cx="194.5" cy="106" r="11.5"/><circle cx="321.5" cy="106" r="11.5"/></svg>