<svg id="Layer_1" data-name="Layer 1" xmlns="http://www.w3.org/2000/svg" viewBox="0 0 500 440"><defs><style>.cls-1{fill:#fff;}.cls-2{fill:none;stroke:#000;stroke-linejoin:round;stroke-width:20px;}</style></defs><title>sadCalenderInProgress</title><rect class="cls-1" x="10" y="10" width="480" height="420" rx="43.17" ry="43.17"/><path d="M879.83,157A33.17,33.17,0,0,1,913,190.17V523.83A33.17,33.17,0,0,1,879.83,557H486.17A33.17,33.17,0,0,1,453,523.83V190.17A33.17,33.17,0,0,1,486.17,157H879.83m0-20H486.17A53.23,53.23,0,0,0,433,190.17V523.83A53.23,53.23,0,0,0,486.17,577H879.83A53.23,53.23,0,0,0,933,523.83V190.17A53.23,53.23,0,0,0,879.83,137Z" transform="translate(-433 -137)"/><line class="cls-2" x1="20" y1="71" x2="480" y2="71"/></svg>