<svg xmlns="http://www.w3.org/2000/svg" xmlns:xlink="http://www.w3.org/1999/xlink" viewBox="0 0 1366 768"><defs><style>.cls-1{fill:#fff;}.cls-2{fill:url(#radial-gradient);}</style><radialGradient id="radial-gradient" cx="391.63" cy="290.48" r="158.41" gradientTransform="translate(-68.19 -79.29) scale(1.59 1.55)" gradientUnits="userSpaceOnUse"><stop offset="0" stop-color="#fff"/><stop offset="0.41" stop-color="#fff" stop-opacity="0"/></radialGradient></defs><title>star</title><g id="Layer_1" data-name="Layer 1"><rect x="0.5" y="0.5" width="1365" height="767"/><path class="cls-1" d="M1365,1V767H1V1H1365m1-1H0V768H1366V0Z"/></g><g id="Layer_2" data-name="Layer 2"><path class="cls-1" d="M643.46,584.21c-105.36-254.35-70.24-254.35-175.59,0C573.22,329.86,598.05,354.69,343.7,460c254.35-105.36,254.35-70.24,0-175.59C598.05,389.81,573.22,414.64,467.86,160.29c105.36,254.35,70.24,254.35,175.59,0C538.1,414.64,513.27,389.81,767.62,284.46c-254.35,105.36-254.35,70.24,0,175.59C513.27,354.69,538.1,329.86,643.46,584.21Z"/><path class="cls-1" d="M669.22,485.81c-136.27-136.27-113.56-145.68-113.56,47,0-192.72,22.71-183.31-113.56-47,136.27-136.27,145.68-113.56-47-113.56,192.72,0,183.31,22.71,47-113.56,136.27,136.27,113.56,145.68,113.56-47,0,192.72-22.71,183.31,113.56,47C532.95,395,523.54,372.25,716.26,372.25,523.54,372.25,532.95,349.54,669.22,485.81Z"/></g><g id="Layer_3" data-name="Layer 3"><ellipse class="cls-2" cx="555.66" cy="372.25" rx="252.34" ry="246.25"/></g></svg>