<svg id="Layer_1" data-name="Layer 1" xmlns="http://www.w3.org/2000/svg" viewBox="0 0 223.26 144.48"><defs><style>.cls-1{fill:#ffeb3b;}.cls-2{fill:#ffc107;}.cls-3{fill:#4caf50;}.cls-4{fill:#ff5722;}.cls-5{fill:#3f51b5;}</style></defs><title>VydenLogo</title><circle class="cls-1" cx="-376.22" cy="-54.91"/><polygon class="cls-2" points="187.61 0 121.59 0 160.03 51.91 187.61 0"/><polygon class="cls-3" points="157.43 56.8 114.23 0 41.47 0 127.51 113.1 157.43 56.8"/><polygon class="cls-4" points="35.16 0 0.9 0 0 0.5 110.5 144.48 110.83 144.48 125.24 117.38 35.16 0"/><polygon class="cls-5" points="194.62 0 193.74 0 188.51 9.83 161.04 61.53 131.12 117.84 128.85 122.09 116.96 144.48 141.32 144.48 146.48 144.48 159.76 119.49 178.42 84.38 223.26 0 194.62 0"/></svg>